<?xml version="1.0" encoding="UTF-8" standalone="no"?>
<svg
   xmlns:dc="http://purl.org/dc/elements/1.1/"
   xmlns:cc="http://creativecommons.org/ns#"
   xmlns:rdf="http://www.w3.org/1999/02/22-rdf-syntax-ns#"
   xmlns:svg="http://www.w3.org/2000/svg"
   xmlns="http://www.w3.org/2000/svg"
   xmlns:sodipodi="http://sodipodi.sourceforge.net/DTD/sodipodi-0.dtd"
   xmlns:inkscape="http://www.inkscape.org/namespaces/inkscape"
   version="1.2"
   viewBox="0 0 1500 1500"
   width="1500"
   height="1500"
   id="svg1238"
   sodipodi:docname="Happy-young-people.svg"
   inkscape:version="0.92.5 (2060ec1f9f, 2020-04-08)">
  <metadata
     id="metadata1244">
    <rdf:RDF>
      <cc:Work
         rdf:about="">
        <dc:format>image/svg+xml</dc:format>
        <dc:type
           rdf:resource="http://purl.org/dc/dcmitype/StillImage" />
      </cc:Work>
    </rdf:RDF>
  </metadata>
  <defs
     id="defs1242" />
  <sodipodi:namedview
     pagecolor="#ffffff"
     bordercolor="#666666"
     borderopacity="1"
     objecttolerance="10"
     gridtolerance="10"
     guidetolerance="10"
     inkscape:pageopacity="0"
     inkscape:pageshadow="2"
     inkscape:window-width="1024"
     inkscape:window-height="703"
     id="namedview1240"
     showgrid="false"
     inkscape:zoom="1.03"
     inkscape:cx="1118.7483"
     inkscape:cy="72.101662"
     inkscape:window-x="0"
     inkscape:window-y="0"
     inkscape:window-maximized="1"
     inkscape:current-layer="svg1238" />
  <title
     id="title647">2650148-ai</title>
  <style
     id="style649">
		tspan { white-space:pre }
		.shp0 { fill: #adbec4 } 
		.shp1 { fill: #0e3944 } 
		.shp2 { fill: #ef6e4b } 
		.shp3 { fill: #ff8b66 } 
		.shp4 { fill: #164353 } 
		.shp5 { fill: #cfd8dc } 
		.shp6 { fill: #db614d } 
		.shp7 { fill: #1a4850 } 
		.shp8 { fill: #6097b2 } 
		.shp9 { fill: #205260 } 
		.shp10 { fill: #8b383e } 
		.shp11 { fill: #662c33 } 
		.shp12 { fill: #ce364c } 
		.shp13 { fill: #f24052 } 
		.shp14 { fill: #a02e44 } 
		.shp15 { fill: #ffb878 } 
		.shp16 { fill: #0c476b } 
		.shp17 { fill: #105e99 } 
		.shp18 { fill: #225866 } 
		.shp19 { fill: #8bbddb } 
		.shp20 { fill: #3e6575 } 
	</style>
  <g
     id="g811">
    <path
       style="fill:#0e3944"
       inkscape:connector-curvature="0"
       d="m 387.77,483.19 c -11.64,-7.92 -25.97,-8.83 -43,-2.73 -25.53,9.15 -31.27,43.54 -24.98,71.45 4.2,18.6 -5.43,59.67 -28.86,123.19 12.18,17.13 39.56,22.42 82.13,15.86 C 404.81,633.27 419.5,583.72 417.15,542.3 414.79,500.88 405,481.18 387.77,483.19 Z"
       class="shp1"
       id="path661" />
    <path
       style="fill:#ef6e4b"
       inkscape:connector-curvature="0"
       d="m 407.93,590.54 c 24,-7.68 38.69,12.31 52.44,49.5 9.16,24.8 15.29,38.44 18.37,40.92 l 53.08,34.11 -4.41,19.87 c -33.68,-13.18 -54.59,-23.97 -62.73,-32.36 -8.14,-8.38 -23.92,-33.82 -47.35,-76.3 z"
       class="shp2"
       id="path663" />
    <path
       style="fill:#ff8b66"
       inkscape:connector-curvature="0"
       d="m 290.95,830.82 c -6.94,35.16 -9.84,79.2 -8.7,132.12 -27.35,40.34 -29.74,118.06 -7.17,233.16 h 17.77 c 9.67,-97.93 18.21,-160.16 25.61,-186.69 11.1,-39.81 52.1,-52.02 54.32,-173.04 z"
       class="shp3"
       id="path665" />
    <path
       style="fill:#ff8b66"
       inkscape:connector-curvature="0"
       d="M 209.77,985.89 C 199.45,951.88 172.92,894.9 104.86,817.68 c -2.71,-1.4 -5.89,-0.98 -9.55,1.26 -3.86,2.36 -5.79,4.92 -5.79,7.7 22.75,49.58 41.38,92.53 55.89,128.86 7.33,18.34 25.05,30.39 44.8,30.39 z"
       class="shp3"
       id="path667" />
    <path
       style="fill:#164353"
       inkscape:connector-curvature="0"
       d="m 333.67,1051.67 c 0.16,16.92 -5.32,25.52 -16.42,25.81 -23.51,0.64 -24.38,-24.98 -51.03,-24.15 -26.64,0.84 -81.6,7.5 -99.09,-34.14 -9.02,-21.51 3.33,-49.12 -25.81,-69.94 -29.14,-20.82 -14.99,-44.13 0,-56.63 14.99,-12.45 -6.46,-26.11 9.16,-32.47 3.73,-1.5 7.39,-1.33 10.79,-0.2 2,0.7 3.86,1.67 5.66,2.86 5.51,3.67 10.2,8.69 14.06,15.06 29.42,-80.58 70.32,-126.19 122.7,-136.83 l 77.71,26.81 c 1.24,125.37 -14.67,219.98 -47.73,283.82 z"
       class="shp4"
       id="path669" />
    <path
       style="fill:#cfd8dc"
       inkscape:connector-curvature="0"
       d="m 407.93,590.54 c -12.09,4.08 -26.73,4.81 -43.92,2.2 -25.78,-3.92 -34.17,-20.11 -52.3,-9.69 -27.21,15.65 -14.47,69.5 -7.64,97.5 2.55,10.43 5.78,37.86 -0.37,60.5 24.16,18.79 50.06,27.72 77.71,26.79 l 22.62,-49.21 c 32.81,-39.25 34.1,-81.95 3.9,-128.09 z"
       class="shp5"
       id="path671" />
    <path
       style="fill:#ef6e4b"
       inkscape:connector-curvature="0"
       d="m 361.88,545.37 c 2.01,16.98 -0.12,33.2 -6.4,48.65 8.96,13.24 17.73,15.5 26.29,6.79 0.78,-15.56 5.98,-32.15 15.6,-49.76 6.44,-11.79 -5.39,-13.68 -35.49,-5.68 z"
       class="shp2"
       id="path673" />
    <g
       id="g709">
      <path
         style="fill:#ff8b66"
         inkscape:connector-curvature="0"
         d="m 341.26,546.24 c -7.56,-4.79 -10.92,-3.49 -10.06,3.89 1.48,12.84 14,15.34 15.33,10.85 0.89,-2.99 -0.87,-7.9 -5.27,-14.74 z"
         class="shp3"
         id="path675" />
      <path
         style="fill:#ff8b66"
         inkscape:connector-curvature="0"
         d="m 406.37,532.34 c 4.81,-7.55 8.4,-7.81 10.77,-0.76 4.13,12.24 -6.12,19.84 -9.24,16.35 -2.08,-2.33 -2.59,-7.52 -1.53,-15.59 z"
         class="shp3"
         id="path677" />
      <path
         style="fill:#ff8b66"
         inkscape:connector-curvature="0"
         d="m 382.94,584.6 c -20.59,4.61 -35.21,-6.24 -44.24,-46.56 -4.66,-20.8 3.06,-35.93 26.12,-41.1 23.06,-5.16 35.62,5.43 40.28,26.23 9.7,43.33 -0.9,56.67 -22.16,61.43 z"
         class="shp3"
         id="path679" />
      <path
         style="fill:#db614d"
         inkscape:connector-curvature="0"
         d="m 401.5,539.08 c 0.83,1.99 -0.52,4.43 -3,5.46 -2.49,1.03 -5.18,0.26 -6,-1.73 -0.82,-1.99 0.52,-4.44 3.01,-5.47 2.49,-1.03 5.17,-0.25 5.99,1.74 z"
         class="shp6"
         id="path681" />
      <path
         style="fill:#db614d"
         inkscape:connector-curvature="0"
         d="m 359.42,549.68 c 0.33,2.13 -1.55,4.19 -4.21,4.61 -2.66,0.41 -5.09,-0.97 -5.42,-3.1 -0.33,-2.13 1.55,-4.19 4.21,-4.6 2.66,-0.42 5.09,0.97 5.42,3.09 z"
         class="shp6"
         id="path683" />
      <g
         id="g687">
        <path
           style="fill:#0e3944"
           inkscape:connector-curvature="0"
           d="m 387.17,520.29 c -0.2,0 -0.4,-0.06 -0.58,-0.18 -3.52,-2.35 -8.51,-1.1 -8.56,-1.09 -0.58,0.15 -1.14,-0.2 -1.29,-0.76 -0.14,-0.56 0.2,-1.14 0.76,-1.28 0.24,-0.06 5.96,-1.49 10.26,1.38 0.48,0.32 0.61,0.97 0.29,1.46 -0.2,0.3 -0.54,0.47 -0.88,0.47 z"
           class="shp1"
           id="path685" />
      </g>
      <g
         id="g691">
        <path
           style="fill:#0e3944"
           inkscape:connector-curvature="0"
           d="m 348.41,528.96 c -0.18,0 -0.37,-0.04 -0.54,-0.15 -0.5,-0.3 -0.66,-0.94 -0.36,-1.44 2.66,-4.43 8.45,-5.58 8.69,-5.62 0.57,-0.09 1.12,0.26 1.24,0.83 0.1,0.58 -0.27,1.13 -0.84,1.24 -0.05,0.01 -5.11,1.03 -7.28,4.63 -0.2,0.33 -0.55,0.51 -0.91,0.51 z"
           class="shp1"
           id="path689" />
      </g>
      <path
         style="fill:#1a4850"
         inkscape:connector-curvature="0"
         d="m 388.07,531.58 c 0.57,2.56 -0.11,4.89 -1.53,5.2 -1.42,0.32 -3.04,-1.49 -3.61,-4.05 -0.57,-2.55 0.11,-4.88 1.53,-5.2 1.42,-0.32 3.04,1.49 3.61,4.05 z"
         class="shp7"
         id="path693" />
      <path
         style="fill:#1a4850"
         inkscape:connector-curvature="0"
         d="m 359.47,537.74 c 0.58,2.55 -0.11,4.88 -1.53,5.2 -1.42,0.32 -3.04,-1.5 -3.61,-4.05 -0.57,-2.56 0.12,-4.89 1.54,-5.21 1.42,-0.31 3.03,1.5 3.6,4.06 z"
         class="shp7"
         id="path695" />
      <path
         style="fill:#1a4850"
         inkscape:connector-curvature="0"
         d="m 368.72,561.94 c 8.82,-0.71 15.17,-2.71 19.05,-5.99 -1.07,6.88 -4,10.57 -8.8,11.04 -4.79,0.48 -8.21,-1.2 -10.25,-5.05 z"
         class="shp7"
         id="path697" />
      <path
         style="fill:#1a4850"
         inkscape:connector-curvature="0"
         d="m 380.87,531.86 c 0.31,-4.48 1.32,-6.75 3.04,-6.82 1.71,-0.07 3.6,1.56 5.66,4.87 l 3.22,-2.75 -3.55,1.3 c -2.11,-3.47 -3.98,-5.02 -5.61,-4.67 -2.32,0.51 -3.24,3.2 -2.76,8.07 z"
         class="shp7"
         id="path699" />
      <path
         style="fill:#1a4850"
         inkscape:connector-curvature="0"
         d="m 361.05,537.11 c -2.19,-3.92 -4.07,-5.54 -5.65,-4.87 -1.58,0.67 -2.6,2.94 -3.04,6.81 l -4.09,-1.11 3.76,-0.34 c 0.43,-4.04 1.46,-6.24 3.09,-6.61 2.32,-0.53 4.3,1.51 5.93,6.12 z"
         class="shp7"
         id="path701" />
      <g
         id="g705">
        <path
           style="fill:#db614d"
           inkscape:connector-curvature="0"
           d="m 375.39,550.02 -1.06,-2.01 c 1.71,-0.9 1.86,-2.12 1.68,-2.98 -0.25,-1.22 -1.24,-2.19 -1.96,-2.24 -0.41,-0.02 -0.77,0.33 -1.04,1.06 l -2.13,-0.79 c 0.91,-2.46 2.64,-2.59 3.34,-2.54 1.81,0.14 3.57,1.91 4.02,4.04 0.46,2.23 -0.6,4.28 -2.85,5.46 z"
           class="shp6"
           id="path703" />
      </g>
      <path
         style="fill:#0e3944"
         inkscape:connector-curvature="0"
         d="m 342.89,553.5 c -4.23,-15.58 -5.09,-28.87 -2.58,-39.88 11.94,-16.62 29.43,-20.83 52.48,-12.61 6.83,11.01 11.94,24.21 15.32,39.61 0.86,-5.53 0.15,-14.46 -2.15,-26.78 -3.43,-18.48 -19.83,-29.96 -42.31,-26.26 -22.48,3.69 -46.54,26.06 -20.76,65.92 z"
         class="shp1"
         id="path707" />
    </g>
    <path
       style="fill:#0e3944"
       inkscape:connector-curvature="0"
       d="m 379.13,495.83 c 0.92,4.06 -0.6,11.33 -4.56,21.79 -2.84,-2.97 -5.93,-2.97 -9.26,0 -4.99,4.46 -15.14,2.97 -18.6,5.38 -2.31,1.61 -3.46,4.25 -3.46,7.92 -2,-4.57 -2,-9.6 0,-15.08 -4.5,5.71 -6.45,12.09 -5.85,19.15 -6.09,-0.99 -9,-6.51 -8.73,-16.56 0.42,-15.08 21.86,-39.48 45.9,-37.9 16.04,1.06 25.96,14.28 29.78,39.66 -1.47,-1.15 -3.34,-1.47 -5.63,-0.96 -0.35,-5.37 -2.33,-11.45 -5.93,-18.22 1.66,4.89 1.66,9.97 0,15.24 -4.47,-2.34 -8.46,-3.14 -11.98,-2.41 2.17,-4.25 1.61,-10.26 -1.68,-18.01 z"
       class="shp1"
       id="path711" />
    <path
       style="fill:#ff8b66"
       inkscape:connector-curvature="0"
       d="m 305.61,587.87 c 11.7,-9.23 20.82,2.51 23.05,18.74 2.24,16.23 -18.93,111.99 -35.25,108.46 -4.2,-0.91 -7.15,-9.73 -8.87,-26.45 4.26,-17.95 7.76,-40.43 10.52,-67.45 1.89,-18.62 4.45,-28.49 10.55,-33.3 z"
       class="shp3"
       id="path713" />
    <path
       style="fill:#ff8b66"
       inkscape:connector-curvature="0"
       d="M 271.56,701.53 C 255.8,686.52 227.55,636.7 220.37,611.32 l 11.96,-4.81 c 24.01,34.34 41.48,55.84 52.42,64.5 16.42,12.99 22.19,27.46 14.86,39.84 -7.33,12.39 -24.74,-6.16 -28.05,-9.32 z"
       class="shp3"
       id="path715" />
    <g
       id="g723">
      <path
         style="fill:#ff8b66"
         inkscape:connector-curvature="0"
         d="m 225.29,578.09 c -0.83,16.29 12.45,20.16 6.56,32.66 -1.22,2.58 -3.07,3.95 -4.99,4.63 -3.65,1.29 -7.7,0.07 -10.42,-2.68 -6.31,-6.38 -16.07,-13.13 -21.26,-16.1 -3.94,-2.27 -4.79,-3.71 -2.56,-4.33 -0.58,-0.27 -1.13,-0.5 -1.69,-0.72 -4.21,-1.76 -7.58,-2.43 -4.53,-4.31 2.29,-1.42 7.5,-0.65 15.63,2.32 -15.86,-10.56 -20.17,-7.99 -17.27,-10.23 3.95,-3.08 19.03,3.99 19.48,4.2 -8.38,-7.92 -14.46,-9.71 -11.13,-10.91 3.37,-1.21 19.95,10.8 26,15.3 0.91,0.68 1.64,1.23 2.2,1.67 -0.14,-8.88 1.19,-12.71 3.98,-11.5 z"
         class="shp3"
         id="path717" />
      <path
         style="fill:#ef6e4b"
         inkscape:connector-curvature="0"
         d="m 219.11,587.92 c 0.91,0.68 1.64,1.23 2.2,1.67 -1.89,3.18 -1.61,6.83 0.84,10.96 -4.5,-2.96 -5.51,-7.16 -3.04,-12.63 z"
         class="shp2"
         id="path719" />
      <path
         style="fill:#ef6e4b"
         inkscape:connector-curvature="0"
         d="m 205.2,597.28 c -1.4,-0.77 -9.4,-5.28 -12.58,-5.01 -0.58,-0.27 -1.13,-0.5 -1.69,-0.72 2.14,-2.82 12.68,4.57 14.27,5.73 z"
         class="shp2"
         id="path721" />
    </g>
    <g
       id="g797">
      <path
         style="fill:#6097b2"
         inkscape:connector-curvature="0"
         d="m 268.1,839 c 0,1.77 -1.44,3.21 -3.21,3.21 -1.76,0 -3.2,-1.44 -3.2,-3.21 0,-1.76 1.44,-3.2 3.2,-3.2 1.77,0 3.21,1.44 3.21,3.2 z"
         class="shp8"
         id="path725" />
      <path
         style="fill:#6097b2"
         inkscape:connector-curvature="0"
         d="m 325.22,861.04 c 0,1.77 -1.44,3.2 -3.21,3.2 -1.77,0 -3.2,-1.43 -3.2,-3.2 0,-1.77 1.43,-3.2 3.2,-3.2 1.77,0 3.21,1.43 3.21,3.2 z"
         class="shp8"
         id="path727" />
      <path
         style="fill:#6097b2"
         inkscape:connector-curvature="0"
         d="m 373.89,872.86 c 0,1.77 -1.44,3.2 -3.2,3.2 -1.77,0 -3.21,-1.43 -3.21,-3.2 0,-1.77 1.44,-3.21 3.21,-3.21 1.76,0 3.2,1.44 3.2,3.21 z"
         class="shp8"
         id="path729" />
      <path
         style="fill:#6097b2"
         inkscape:connector-curvature="0"
         d="m 299.1,797.2 c 0,1.77 -1.43,3.2 -3.2,3.2 -1.77,0 -3.2,-1.43 -3.2,-3.2 0,-1.77 1.43,-3.2 3.2,-3.2 1.77,0 3.2,1.43 3.2,3.2 z"
         class="shp8"
         id="path731" />
      <path
         style="fill:#6097b2"
         inkscape:connector-curvature="0"
         d="m 309.89,827.62 c 0,1.77 -1.44,3.2 -3.21,3.2 -1.77,0 -3.2,-1.43 -3.2,-3.2 0,-1.77 1.43,-3.2 3.2,-3.2 1.77,0 3.21,1.43 3.21,3.2 z"
         class="shp8"
         id="path733" />
      <path
         style="fill:#6097b2"
         inkscape:connector-curvature="0"
         d="m 360.53,844.96 c 0,1.77 -1.43,3.2 -3.2,3.2 -1.77,0 -3.2,-1.43 -3.2,-3.2 0,-1.77 1.43,-3.2 3.2,-3.2 1.77,0 3.2,1.43 3.2,3.2 z"
         class="shp8"
         id="path735" />
      <path
         style="fill:#6097b2"
         inkscape:connector-curvature="0"
         d="m 367.48,792.48 c 0,1.77 -1.43,3.2 -3.2,3.2 -1.77,0 -3.2,-1.43 -3.2,-3.2 0,-1.77 1.43,-3.2 3.2,-3.2 1.77,0 3.2,1.43 3.2,3.2 z"
         class="shp8"
         id="path737" />
      <path
         style="fill:#6097b2"
         inkscape:connector-curvature="0"
         d="m 334.3,781.56 c 0,1.77 -1.44,3.2 -3.2,3.2 -1.77,0 -3.21,-1.43 -3.21,-3.2 0,-1.77 1.44,-3.2 3.21,-3.2 1.76,0 3.2,1.43 3.2,3.2 z"
         class="shp8"
         id="path739" />
      <path
         style="fill:#6097b2"
         inkscape:connector-curvature="0"
         d="m 239.76,901.46 c 0,1.77 -1.43,3.2 -3.2,3.2 -1.77,0 -3.2,-1.43 -3.2,-3.2 0,-1.77 1.43,-3.2 3.2,-3.2 1.77,0 3.2,1.43 3.2,3.2 z"
         class="shp8"
         id="path741" />
      <path
         style="fill:#6097b2"
         inkscape:connector-curvature="0"
         d="m 194.13,887.85 c 0,1.77 -1.43,3.2 -3.2,3.2 -1.77,0 -3.2,-1.43 -3.2,-3.2 0,-1.77 1.43,-3.2 3.2,-3.2 1.77,0 3.2,1.43 3.2,3.2 z"
         class="shp8"
         id="path743" />
      <path
         style="fill:#6097b2"
         inkscape:connector-curvature="0"
         d="m 166.93,862.81 c -0.56,0.87 -1.56,1.44 -2.7,1.44 -1.76,0 -3.19,-1.44 -3.19,-3.2 0,-0.4 0.06,-0.77 0.23,-1.1 2,0.7 3.86,1.67 5.66,2.86 z"
         class="shp8"
         id="path745" />
      <path
         style="fill:#6097b2"
         inkscape:connector-curvature="0"
         d="m 256.11,943.22 c 0,1.77 -1.43,3.2 -3.2,3.2 -1.77,0 -3.2,-1.43 -3.2,-3.2 0,-1.77 1.43,-3.2 3.2,-3.2 1.77,0 3.2,1.43 3.2,3.2 z"
         class="shp8"
         id="path747" />
      <path
         style="fill:#6097b2"
         inkscape:connector-curvature="0"
         d="m 174.22,988.6 c 0,1.77 -1.44,3.2 -3.21,3.2 -1.76,0 -3.2,-1.43 -3.2,-3.2 0,-1.77 1.44,-3.2 3.2,-3.2 1.77,0 3.21,1.43 3.21,3.2 z"
         class="shp8"
         id="path749" />
      <path
         style="fill:#6097b2"
         inkscape:connector-curvature="0"
         d="m 207.67,961.09 c 0,1.77 -1.43,3.2 -3.2,3.2 -1.77,0 -3.2,-1.43 -3.2,-3.2 0,-1.77 1.43,-3.2 3.2,-3.2 1.77,0 3.2,1.43 3.2,3.2 z"
         class="shp8"
         id="path751" />
      <path
         style="fill:#6097b2"
         inkscape:connector-curvature="0"
         d="m 157.84,936.75 c 0,1.77 -1.43,3.21 -3.2,3.21 -1.77,0 -3.2,-1.44 -3.2,-3.21 0,-1.77 1.43,-3.2 3.2,-3.2 1.77,0 3.2,1.43 3.2,3.2 z"
         class="shp8"
         id="path753" />
      <path
         style="fill:#6097b2"
         inkscape:connector-curvature="0"
         d="m 198.07,1032.59 c 0,1.77 -1.44,3.21 -3.21,3.21 -1.76,0 -3.2,-1.44 -3.2,-3.21 0,-1.76 1.44,-3.2 3.2,-3.2 1.77,0 3.21,1.44 3.21,3.2 z"
         class="shp8"
         id="path755" />
      <path
         style="fill:#6097b2"
         inkscape:connector-curvature="0"
         d="m 228.55,864.24 c 0,1.77 -1.43,3.2 -3.2,3.2 -1.77,0 -3.2,-1.43 -3.2,-3.2 0,-1.77 1.43,-3.2 3.2,-3.2 1.77,0 3.2,1.43 3.2,3.2 z"
         class="shp8"
         id="path757" />
      <path
         style="fill:#6097b2"
         inkscape:connector-curvature="0"
         d="m 259.31,810.32 c 0,1.77 -1.43,3.2 -3.2,3.2 -1.77,0 -3.2,-1.43 -3.2,-3.2 0,-1.77 1.43,-3.2 3.2,-3.2 1.77,0 3.2,1.43 3.2,3.2 z"
         class="shp8"
         id="path759" />
      <path
         style="fill:#6097b2"
         inkscape:connector-curvature="0"
         d="m 294.13,765.44 c 0,1.77 -1.44,3.2 -3.2,3.2 -1.77,0 -3.21,-1.43 -3.21,-3.2 0,-1.77 1.44,-3.2 3.21,-3.2 1.76,0 3.2,1.43 3.2,3.2 z"
         class="shp8"
         id="path761" />
      <path
         style="fill:#6097b2"
         inkscape:connector-curvature="0"
         d="m 223.58,830.82 c 0,1.77 -1.44,3.2 -3.21,3.2 -1.76,0 -3.2,-1.43 -3.2,-3.2 0,-1.77 1.44,-3.2 3.2,-3.2 1.77,0 3.21,1.43 3.21,3.2 z"
         class="shp8"
         id="path763" />
      <path
         style="fill:#6097b2"
         inkscape:connector-curvature="0"
         d="m 262.52,778.36 c 0,1.77 -1.44,3.2 -3.21,3.2 -1.76,0 -3.2,-1.43 -3.2,-3.2 0,-1.77 1.44,-3.21 3.2,-3.21 1.77,0 3.21,1.44 3.21,3.21 z"
         class="shp8"
         id="path765" />
      <path
         style="fill:#6097b2"
         inkscape:connector-curvature="0"
         d="m 201.27,922.53 c 0,1.77 -1.43,3.2 -3.2,3.2 -1.77,0 -3.21,-1.43 -3.21,-3.2 0,-1.77 1.44,-3.2 3.21,-3.2 1.77,0 3.2,1.43 3.2,3.2 z"
         class="shp8"
         id="path767" />
      <path
         style="fill:#6097b2"
         inkscape:connector-curvature="0"
         d="m 161.05,894.25 c 0,1.77 -1.44,3.2 -3.21,3.2 -1.76,0 -3.2,-1.43 -3.2,-3.2 0,-1.77 1.44,-3.2 3.2,-3.2 1.77,0 3.21,1.43 3.21,3.2 z"
         class="shp8"
         id="path769" />
      <path
         style="fill:#6097b2"
         inkscape:connector-curvature="0"
         d="m 277.7,884.65 c 0,1.76 -1.43,3.2 -3.2,3.2 -1.77,0 -3.2,-1.44 -3.2,-3.2 0,-1.77 1.43,-3.21 3.2,-3.21 1.77,0 3.2,1.44 3.2,3.21 z"
         class="shp8"
         id="path771" />
      <path
         style="fill:#6097b2"
         inkscape:connector-curvature="0"
         d="m 343.9,901.46 c 0,1.77 -1.43,3.2 -3.2,3.2 -1.77,0 -3.2,-1.43 -3.2,-3.2 0,-1.77 1.43,-3.2 3.2,-3.2 1.77,0 3.2,1.43 3.2,3.2 z"
         class="shp8"
         id="path773" />
      <path
         style="fill:#6097b2"
         inkscape:connector-curvature="0"
         d="m 340.7,810.32 c 0,1.77 -1.43,3.2 -3.2,3.2 -1.77,0 -3.2,-1.43 -3.2,-3.2 0,-1.77 1.43,-3.2 3.2,-3.2 1.77,0 3.2,1.43 3.2,3.2 z"
         class="shp8"
         id="path775" />
      <path
         style="fill:#6097b2"
         inkscape:connector-curvature="0"
         d="m 379.19,817.03 c 0,1.77 -1.44,3.2 -3.2,3.2 -1.77,0 -3.21,-1.43 -3.21,-3.2 0,-1.77 1.44,-3.2 3.21,-3.2 1.76,0 3.2,1.43 3.2,3.2 z"
         class="shp8"
         id="path777" />
      <path
         style="fill:#6097b2"
         inkscape:connector-curvature="0"
         d="m 302.3,925.73 c 0,1.77 -1.43,3.2 -3.2,3.2 -1.77,0 -3.2,-1.43 -3.2,-3.2 0,-1.77 1.43,-3.2 3.2,-3.2 1.77,0 3.2,1.43 3.2,3.2 z"
         class="shp8"
         id="path779" />
      <path
         style="fill:#6097b2"
         inkscape:connector-curvature="0"
         d="m 274.5,982.69 c 0,1.77 -1.43,3.2 -3.2,3.2 -1.77,0 -3.2,-1.43 -3.2,-3.2 0,-1.77 1.43,-3.2 3.2,-3.2 1.77,0 3.2,1.43 3.2,3.2 z"
         class="shp8"
         id="path781" />
      <path
         style="fill:#6097b2"
         inkscape:connector-curvature="0"
         d="m 225.35,991.8 c 0,1.77 -1.43,3.21 -3.2,3.21 -1.77,0 -3.21,-1.44 -3.21,-3.21 0,-1.77 1.44,-3.2 3.21,-3.2 1.77,0 3.2,1.43 3.2,3.2 z"
         class="shp8"
         id="path783" />
      <path
         style="fill:#6097b2"
         inkscape:connector-curvature="0"
         d="m 360.53,943.22 c 0,1.77 -1.43,3.2 -3.2,3.2 -1.77,0 -3.2,-1.43 -3.2,-3.2 0,-1.77 1.43,-3.2 3.2,-3.2 1.77,0 3.2,1.43 3.2,3.2 z"
         class="shp8"
         id="path785" />
      <path
         style="fill:#6097b2"
         inkscape:connector-curvature="0"
         d="m 316.29,967.5 c 0,1.76 -1.43,3.2 -3.2,3.2 -1.77,0 -3.2,-1.44 -3.2,-3.2 0,-1.77 1.43,-3.21 3.2,-3.21 1.77,0 3.2,1.44 3.2,3.21 z"
         class="shp8"
         id="path787" />
      <path
         style="fill:#6097b2"
         inkscape:connector-curvature="0"
         d="m 249.71,1039 c 0,1.77 -1.44,3.2 -3.2,3.2 -1.77,0 -3.21,-1.43 -3.21,-3.2 0,-1.77 1.44,-3.2 3.21,-3.2 1.76,0 3.2,1.43 3.2,3.2 z"
         class="shp8"
         id="path789" />
      <path
         style="fill:#6097b2"
         inkscape:connector-curvature="0"
         d="m 299.1,1022.32 c 0,1.77 -1.43,3.21 -3.2,3.21 -1.77,0 -3.2,-1.44 -3.2,-3.21 0,-1.76 1.43,-3.2 3.2,-3.2 1.77,0 3.2,1.44 3.2,3.2 z"
         class="shp8"
         id="path791" />
      <path
         style="fill:#6097b2"
         inkscape:connector-curvature="0"
         d="m 346.69,1003.46 c 0,1.77 -1.44,3.2 -3.21,3.2 -1.76,0 -3.2,-1.43 -3.2,-3.2 0,-1.77 1.44,-3.2 3.2,-3.2 1.77,0 3.21,1.43 3.21,3.2 z"
         class="shp8"
         id="path793" />
      <path
         style="fill:#6097b2"
         inkscape:connector-curvature="0"
         d="m 325.22,1058.55 c 0,1.77 -1.44,3.2 -3.21,3.2 -1.77,0 -3.2,-1.43 -3.2,-3.2 0,-1.77 1.43,-3.21 3.2,-3.21 1.77,0 3.21,1.44 3.21,3.21 z"
         class="shp8"
         id="path795" />
    </g>
    <g
       id="g803">
      <path
         style="fill:#164353"
         inkscape:connector-curvature="0"
         d="m 321.71,1227.17 h -52.59 c -3.43,-9.8 2.9,-19.62 1.83,-28.25 -1.22,-9.72 1,-11.9 6.66,-6.53 1.5,-15.68 23.55,-18.65 23.32,-11.65 -0.37,10.29 1.63,16.65 4.56,20.91 5.93,8.56 15.66,8.5 17.32,14.63 0.17,0.6 0.3,1.19 0.4,1.73 1.09,5.1 0.59,8.16 -1.5,9.16 z"
         class="shp4"
         id="path799" />
      <path
         style="fill:#205260"
         inkscape:connector-curvature="0"
         d="m 323.21,1218.01 c -10.89,2.53 -36,-0.77 -37,-7.1 -0.97,-6.13 12.55,-8.99 19.28,-9.26 5.93,8.56 15.66,8.5 17.32,14.63 0.17,0.6 0.3,1.19 0.4,1.73 z"
         class="shp9"
         id="path801" />
    </g>
    <g
       id="g809">
      <path
         style="fill:#164353"
         inkscape:connector-curvature="0"
         d="m 105.51,819.78 c -3.73,-3.4 -8.62,-2.29 -14.68,3.33 3.26,4.84 3.84,8.24 1.73,10.19 -3.17,2.94 -6.83,-3.76 -13.06,-0.83 -0.5,0.23 -1.03,0.53 -1.53,0.87 -4.86,2.9 -9.93,8.99 -14.02,13.62 -0.84,0.93 -1.64,1.8 -2.37,2.56 -4.76,5 -17.05,7.93 -19.35,-5.39 -2.3,-13.32 12.69,-28.95 29.14,-43.3 10.97,-9.57 20,-11.51 27.08,-5.83 2.49,4.02 3.73,7.28 3.73,9.79 0,3.73 3.33,5.6 5.2,9.16 1.24,2.36 0.62,4.3 -1.87,5.83 z"
         class="shp4"
         id="path805" />
      <path
         style="fill:#205260"
         inkscape:connector-curvature="0"
         d="m 77.97,833.34 c -4.86,2.9 -9.93,8.99 -14.02,13.62 -6.17,1.47 -11.7,1.03 -12.56,-4.76 -2.1,-13.99 25.81,-31.78 23.58,-21.95 -1.13,4.93 0.8,9.62 3,13.09 z"
         class="shp9"
         id="path807" />
    </g>
  </g>
  <g
     id="g941">
    <path
       style="fill:#cfd8dc"
       inkscape:connector-curvature="0"
       d="m 1051.86,1204.42 c -2.59,-1.36 -4.98,-4.35 -7.13,-8.14 0,0 -1.85,-11.2 0,-22.96 1.85,-11.77 -3.27,-21.37 -19.92,-24.98 -16.19,-3.51 -25.8,4.29 -22.06,36.84 0,0.01 0,0.01 0,0.01 -2.46,13.53 -2.97,28.97 2.64,41.98 h 49.84 c 5.24,-11.23 4.12,-18.81 -3.37,-22.75 z"
       class="shp5"
       id="path813" />
    <path
       style="fill:#ff8b66"
       inkscape:connector-curvature="0"
       d="m 1095.58,1028.99 c 0,21.65 -6.1,43.57 -18.32,65.78 -12.43,22.61 -26.34,49.43 -41.71,80.47 -10.25,9.99 -18.62,6.71 -25.13,-9.84 4.59,-57.64 12.16,-97 22.71,-118.09 10.55,-21.1 31.37,-27.21 62.45,-18.32 z"
       class="shp3"
       id="path815" />
    <path
       style="fill:#ff8b66"
       inkscape:connector-curvature="0"
       d="m 1334.57,923.23 c 19.79,83.22 35.97,135.81 48.56,157.76 -2.89,9.19 -11.16,15.17 -24.79,17.94 -43.05,-63.28 -65.96,-108.25 -68.74,-134.89 -2.77,-26.65 12.21,-40.25 44.97,-40.81 z"
       class="shp3"
       id="path817" />
    <g
       id="g837">
      <path
         style="fill:#8b383e"
         inkscape:connector-curvature="0"
         d="m 1348.92,952.58 c -5.26,12.68 -28.22,19.36 -68.88,20.05 l -4.66,-6.86 -1.23,-1.8 -9.53,-14.06 C 1197.25,883.83 1157,853.57 1143.88,859.12 h -0.03 c -0.57,0.26 -1.14,0.56 -1.67,0.96 -13.52,9.66 -14.79,62.59 -30.77,151.42 -1.54,8.43 -4.93,18.25 -7.5,25.05 -0.3,0.73 -0.57,1.43 -0.83,2.1 -0.98,2.5 -1.81,4.56 -2.5,6.16 -41.12,16.65 -68.47,8.52 -82.04,-24.38 0.49,-0.96 1.09,-2.2 1.8,-3.73 0.24,-0.5 0.5,-1.07 0.77,-1.67 3.23,-7.13 8.39,-19.48 8.33,-26.01 -0.07,-7.16 -0.14,-14.06 -0.17,-20.69 0,-0.6 0,-1.16 -0.03,-1.73 -0.1,-21.35 -0.07,-39.9 0.06,-56.02 v -1.7 c 0.07,-7.03 0.17,-13.59 0.3,-19.72 v -1.73 c 0.53,-28.08 1.43,-46.83 2.4,-59.32 0.03,-0.57 0.1,-1.17 0.13,-1.7 1.14,-14.01 2.3,-21.71 3.5,-23.08 l -12.36,-85.9 h 134.83 c 13.5,13.52 29.01,29.21 46.53,47.06 0.57,0.53 1.1,1.07 1.64,1.63 9.52,9.69 19.81,20.22 30.14,30.91 0.43,0.43 0.83,0.83 1.2,1.23 4.06,4.2 8.13,8.4 12.16,12.56 0.49,0.5 0.96,1.03 1.46,1.53 13.52,14.03 26.65,27.85 37.87,39.94 0.4,0.4 0.77,0.8 1.13,1.2 15.36,16.62 27.05,29.91 31.08,36.1 10.69,16.36 19.02,37.64 23.62,50.8 0,0 0,0.01 0,0.03 0.23,0.6 0.43,1.13 0.63,1.7 1.44,4.26 2.56,7.75 3.36,10.46 z"
         class="shp10"
         id="path819" />
      <g
         id="g835">
        <path
           style="fill:#662c33"
           inkscape:connector-curvature="0"
           d="m 1055.81,816.18 c -5.49,6.5 -13.48,10.5 -23.81,11.93 0.03,-0.57 0.1,-1.17 0.13,-1.7 9.73,-1.4 17.26,-5.2 22.42,-11.33 9.26,-10.92 7.76,-25.68 7.73,-25.81 l 1.66,-0.2 c 0.07,0.63 1.6,15.62 -8.13,27.11 z"
           class="shp11"
           id="path821" />
        <path
           style="fill:#662c33"
           inkscape:connector-curvature="0"
           d="m 1206.27,766.12 c -0.54,0.04 -1.04,0.07 -1.57,0.07 -14.99,0 -30.64,-16.39 -31.44,-17.22 l 1.2,-1.17 c 0.2,0.24 15.78,16.56 30.17,16.69 0.57,0.53 1.1,1.07 1.64,1.63 z"
           class="shp11"
           id="path823" />
        <path
           style="fill:#662c33"
           inkscape:connector-curvature="0"
           d="m 1103.91,1036.55 c -0.3,0.73 -0.57,1.43 -0.83,2.1 -9.99,3.66 -19.15,5.16 -27.51,5.16 -26.65,0 -45.1,-15.42 -55.23,-27.11 0.24,-0.5 0.5,-1.07 0.77,-1.67 12.95,15.19 40.63,37.6 82.8,21.52 z"
           class="shp11"
           id="path825" />
        <path
           style="fill:#662c33"
           inkscape:connector-curvature="0"
           d="m 1140.12,828.17 c 2.23,9.56 3.66,19.99 3.73,30.95 -0.57,0.26 -1.14,0.56 -1.67,0.96 -0.07,-50.29 -29.18,-89.53 -29.51,-89.96 l 1.33,-1 c 0.27,0.33 17.52,23.65 25.68,57.32 3.4,-2.23 5.7,-5.43 6.67,-9.56 4.19,-17.65 -14.89,-46.49 -15.06,-46.79 l 1.37,-0.94 c 0.79,1.24 19.65,29.75 15.32,48.1 -1.14,4.8 -3.8,8.43 -7.86,10.92 z"
           class="shp11"
           id="path827" />
        <path
           style="fill:#662c33"
           inkscape:connector-curvature="0"
           d="m 1290.23,853.49 c -4.96,5.39 -9.62,9.99 -10.05,10.39 l -0.9,0.9 -0.44,-1.2 c -6.53,-17.09 -48.49,-54.12 -48.93,-54.49 l -0.5,-0.47 7,-11.59 c 0.43,0.43 0.83,0.83 1.2,1.23 l -5.86,9.73 c 8.16,2.83 13.95,3.33 18.02,2.83 0.49,0.5 0.96,1.03 1.46,1.53 -1.36,0.24 -2.83,0.37 -4.36,0.37 -3.77,0 -8.06,-0.77 -12.89,-2.23 9.52,8.59 39.13,36.04 45.93,51.33 2.63,-2.6 5.96,-6.03 9.19,-9.53 0.4,0.4 0.77,0.8 1.13,1.2 z"
           class="shp11"
           id="path829" />
        <path
           style="fill:#662c33"
           inkscape:connector-curvature="0"
           d="m 1059.94,968.03 -0.66,0.14 c -0.63,0.16 -8.19,1.73 -16.89,1.73 -4.36,0 -8.96,-0.4 -13.12,-1.57 0,-0.6 0,-1.16 -0.03,-1.73 10.99,3.17 25.68,0.73 29.01,0.1 l -2.8,-69.31 c -1.57,3.79 -4.66,8.99 -10.46,11.86 -2.76,1.39 -5.86,2.06 -9.26,2.06 -2.03,0 -4.16,-0.23 -6.43,-0.73 v -1.7 c 5.76,1.33 10.76,0.96 14.92,-1.13 7.06,-3.5 9.86,-11 10.73,-13.96 -5.56,0.83 -16.79,-2 -25.35,-4.63 v -1.73 c 9.23,2.8 21.72,6.03 26.21,4.46 l 1.07,-0.36 z"
           class="shp11"
           id="path831" />
        <path
           style="fill:#662c33"
           inkscape:connector-curvature="0"
           d="m 1345.56,942.12 c -9.69,9.56 -29.55,24.18 -60.09,24.18 -3.23,0 -6.59,-0.16 -10.09,-0.53 l -1.23,-1.8 c 37.13,4.26 60.42,-13.16 70.78,-23.55 0.23,0.6 0.43,1.13 0.63,1.7 z"
           class="shp11"
           id="path833" />
      </g>
    </g>
    <path
       style="fill:#ce364c"
       inkscape:connector-curvature="0"
       d="m 1183.02,352.22 c -2.47,-5.69 -8.93,-8.54 -19.36,-8.54 -8.05,0 -13.6,2.22 -16.68,6.66 -7.22,21.1 -14.98,101.87 -17.75,104.74 -0.94,0.97 -31.24,21.55 -90.89,61.72 32.37,0.61 58.66,20.87 78.86,60.77 1.57,-19.67 56.4,-97.61 56.99,-104.56 1.11,-13.11 24.31,-71.66 8.83,-120.79 z"
       class="shp12"
       id="path839" />
    <path
       style="fill:#ce364c"
       inkscape:connector-curvature="0"
       d="m 1027.68,774.54 c -0.3,11.23 1.36,17.22 5,17.96 5.45,1.11 49.86,14.24 100.93,-8.98 51.07,-23.22 59.95,-40.42 44.97,-53.19 -10,-8.51 -60.3,6.22 -150.9,44.21 z"
       class="shp12"
       id="path841" />
    <path
       style="fill:#f24052"
       inkscape:connector-curvature="0"
       d="m 1007.21,528.47 c -30.97,-3.67 -55.35,-1.67 -73.11,6.02 -4.95,21.99 4.77,57.58 29.18,106.77 36.6,73.8 28.11,120.28 69.4,137.78 36.6,15.51 144.51,-30.65 147.9,-45.96 8.53,-38.54 -57.46,-106.18 -61.62,-145.37 -4.17,-39.19 -42.47,-98.11 -111.75,-59.24 z"
       class="shp13"
       id="path843" />
    <path
       style="fill:#ce364c"
       inkscape:connector-curvature="0"
       d="m 934.1,534.49 c -32.47,11.54 -69.01,48 -69.06,65.57 -0.04,11.72 10.12,19.83 30.47,24.35 l 50.04,-24.35 c 9.55,-6.66 11.28,-19.7 5.2,-39.12 -6.07,-19.42 -11.62,-28.24 -16.65,-26.45 z"
       class="shp12"
       id="path845" />
    <g
       id="g849">
      <path
         style="fill:#cfd8dc"
         inkscape:connector-curvature="0"
         d="m 1067.54,566.99 c -9.71,0 -21.74,-3.5 -29.22,-8.83 -4.12,-2.93 -6.58,-6.25 -7.11,-9.58 -1.83,-11.53 9.4,-17.4 9.88,-17.64 l 1.51,2.97 c -0.39,0.2 -9.55,5.03 -8.1,14.15 0.39,2.43 2.38,4.98 5.75,7.39 8.37,5.97 22.86,9.47 32.29,7.81 4.24,-0.75 7.02,-2.28 8.26,-4.54 1.51,-2.77 0.22,-5.9 0.21,-5.93 l 3.06,-1.32 c 0.08,0.19 1.94,4.6 -0.33,8.8 -1.73,3.22 -5.31,5.33 -10.63,6.27 -1.72,0.3 -3.6,0.45 -5.57,0.45 z"
         class="shp5"
         id="path847" />
    </g>
    <g
       id="g853">
      <path
         style="fill:#cfd8dc"
         inkscape:connector-curvature="0"
         d="m 1026.35,602.13 c -7.18,0 -19.11,-2.99 -20.78,-14.79 -0.86,-6.01 -0.31,-11.01 0.17,-15.43 0.72,-6.5 1.28,-11.64 -2.51,-17.8 -6.26,-10.16 -14.78,-10.84 -15.14,-10.86 l 0.2,-3.33 c 0.43,0.03 10.57,0.74 17.78,12.45 4.38,7.13 3.7,13.34 2.99,19.91 -0.49,4.42 -0.99,9 -0.2,14.59 1.81,12.73 18.03,11.93 18.72,11.9 l 0.2,3.32 c -0.45,0.03 -0.93,0.04 -1.43,0.04 z"
         class="shp5"
         id="path851" />
    </g>
    <path
       style="fill:#ce364c"
       inkscape:connector-curvature="0"
       d="m 1036.46,542.35 c 16.38,-11.15 22.62,-22.76 18.74,-34.84 -5.83,-18.11 -84.94,-16.86 -105.34,4.79 -13.6,14.43 1.11,26.44 44.14,36.02 4.99,-10.07 36.91,-11.18 42.46,-5.97 z"
       class="shp12"
       id="path855" />
    <path
       style="fill:#a02e44"
       inkscape:connector-curvature="0"
       d="m 992.3,539.52 c -11.66,-3.96 -18.57,-12.37 -16.07,-22.08 2.5,-9.72 52.61,-9.98 62.11,-2.21 9.5,7.76 -3.88,38.6 -46.04,24.29 z"
       class="shp14"
       id="path857" />
    <path
       style="fill:#ef6e4b"
       inkscape:connector-curvature="0"
       d="m 986.75,512.22 c 6.88,11.74 8.72,20.84 5.55,27.3 23.58,8.14 35.38,5.62 35.38,-7.58 -4.45,-9.89 -5.83,-18.03 -4.16,-24.43 z"
       class="shp2"
       id="path859" />
    <g
       id="g893">
      <path
         style="fill:#ffb878"
         inkscape:connector-curvature="0"
         d="m 974.95,496.83 c -11.58,-18.56 -16.84,-36.7 -15.77,-54.43 0.54,-8.86 3.09,-15.03 7.65,-18.5 -3.68,-5.12 -3.55,-11.58 0.39,-19.4 5.46,6.31 17.77,8.47 36.93,6.48 18.47,-1.92 28.62,3.7 30.46,16.87 19.81,2.95 6.45,62.86 -7.37,68.98 z"
         class="shp15"
         id="path861" />
      <path
         style="fill:#ff8b66"
         inkscape:connector-curvature="0"
         d="m 967.58,471.13 c -6.66,-6.65 -10.4,-6.09 -11.22,1.68 -1.43,13.5 10.84,18.94 13.24,14.65 1.59,-2.87 0.92,-8.31 -2.02,-16.33 z"
         class="shp3"
         id="path863" />
      <path
         style="fill:#ff8b66"
         inkscape:connector-curvature="0"
         d="m 1037.54,471.83 c 6.66,-6.65 10.4,-6.09 11.22,1.68 1.42,13.51 -10.84,18.95 -13.24,14.65 -1.59,-2.86 -0.92,-8.31 2.02,-16.33 z"
         class="shp3"
         id="path865" />
      <path
         style="fill:#ff8b66"
         inkscape:connector-curvature="0"
         d="m 1001.51,520.03 c -22.17,0 -34.68,-14.48 -34.68,-57.9 0,-22.4 11.4,-36.14 36.22,-36.14 24.83,0 35.29,13.74 35.29,36.14 0,46.66 -13.93,57.9 -36.83,57.9 z"
         class="shp3"
         id="path867" />
      <path
         style="fill:#db614d"
         inkscape:connector-curvature="0"
         d="m 1031,477.62 c 0.39,2.22 -1.56,4.43 -4.34,4.91 -2.79,0.49 -5.36,-0.93 -5.75,-3.15 -0.39,-2.23 1.56,-4.43 4.34,-4.92 2.79,-0.48 5.36,0.93 5.75,3.16 z"
         class="shp6"
         id="path869" />
      <path
         style="fill:#db614d"
         inkscape:connector-curvature="0"
         d="m 985.41,478.83 c -0.15,2.26 -2.56,3.94 -5.38,3.75 -2.82,-0.18 -4.99,-2.16 -4.85,-4.42 0.15,-2.25 2.56,-3.93 5.38,-3.75 2.82,0.18 4.99,2.16 4.85,4.42 z"
         class="shp6"
         id="path871" />
      <g
         id="g875">
        <path
           style="fill:#ffb878"
           inkscape:connector-curvature="0"
           d="m 1021.24,454.33 c -0.29,0.05 -0.59,-0.02 -0.84,-0.21 -3.53,-2.72 -8.83,-1.76 -8.91,-1.74 -0.59,0.09 -1.18,-0.29 -1.29,-0.89 -0.12,-0.6 0.28,-1.18 0.88,-1.29 0.23,-0.05 6.36,-1.15 10.66,2.16 0.49,0.37 0.58,1.07 0.21,1.55 -0.18,0.24 -0.44,0.38 -0.71,0.42 z"
           class="shp15"
           id="path873" />
      </g>
      <g
         id="g879">
        <path
           style="fill:#ffb878"
           inkscape:connector-curvature="0"
           d="m 978.81,454.49 c -0.27,-0.04 -0.53,-0.17 -0.72,-0.4 -0.39,-0.47 -0.32,-1.17 0.15,-1.56 4.21,-3.44 10.35,-2.53 10.59,-2.49 0.61,0.1 1.02,0.66 0.93,1.27 -0.1,0.6 -0.69,1 -1.27,0.92 -0.04,-0.01 -5.43,-0.78 -8.84,2.01 -0.25,0.2 -0.55,0.28 -0.84,0.25 z"
           class="shp15"
           id="path877" />
      </g>
      <path
         style="fill:#1a4850"
         inkscape:connector-curvature="0"
         d="m 1018.95,466.84 c 0,2.76 -1.24,4.99 -2.77,4.99 -1.53,0 -2.77,-2.23 -2.77,-4.99 0,-2.75 1.24,-4.98 2.77,-4.98 1.53,0 2.77,2.23 2.77,4.98 z"
         class="shp7"
         id="path881" />
      <path
         style="fill:#1a4850"
         inkscape:connector-curvature="0"
         d="m 989.34,466.84 c 0,2.76 -1.24,4.99 -2.77,4.99 -1.53,0 -2.77,-2.23 -2.77,-4.99 0,-2.75 1.24,-4.98 2.77,-4.98 1.53,0 2.77,2.23 2.77,4.98 z"
         class="shp7"
         id="path883" />
      <path
         style="fill:#ffb878"
         inkscape:connector-curvature="0"
         d="m 973.63,430.8 c 15.75,5.76 34.91,7.84 57.49,6.21 4.81,6 6.93,19.59 6.35,40.76 13.22,-38.14 0.53,-57.21 -38.07,-57.21 -38.59,0 -49.2,18.65 -31.81,55.94 -3.15,-23.32 -1.14,-38.56 6.04,-45.7 z"
         class="shp15"
         id="path885" />
      <g
         id="g889">
        <path
           style="fill:#db614d"
           inkscape:connector-curvature="0"
           d="m 1002.91,481.65 -1.66,-1.67 4.38,-4.36 c -4.25,-6.01 -4.22,-19.92 -4.22,-20.54 l 2.35,0.01 c 0,0.15 -0.02,15.12 4.32,19.82 l 0.77,0.83 z"
           class="shp6"
           id="path887" />
      </g>
      <path
         style="fill:#1a4850"
         inkscape:connector-curvature="0"
         d="m 988.2,488.9 c 14.54,0.61 25.49,-0.05 32.83,-2 1.3,10.58 -3.69,16.13 -14.96,16.66 -11.92,0.55 -17.87,-4.33 -17.87,-14.66 z"
         class="shp7"
         id="path891" />
    </g>
    <path
       style="fill:#cfd8dc"
       inkscape:connector-curvature="0"
       d="m 1081.43,548.88 c 4.16,-0.77 3.75,10.12 0,6.96 -3.75,-3.15 -4.17,-6.19 0,-6.96 z"
       class="shp5"
       id="path895" />
    <path
       style="fill:#cfd8dc"
       inkscape:connector-curvature="0"
       d="m 1031.22,601.68 c -0.63,4.18 -10.79,0.22 -6.58,-2.29 4.21,-2.5 7.21,-1.9 6.58,2.29 z"
       class="shp5"
       id="path897" />
    <path
       style="fill:#ef6e4b"
       inkscape:connector-curvature="0"
       d="m 986.53,624.41 c -4.41,11.3 -6.49,20.15 -6.24,26.53 0.26,6.39 1.43,9.16 3.51,8.33 -3.34,1.32 -5.33,3.82 -5.96,7.5 -0.95,5.52 12.99,9.57 13.95,9.57 0.64,0 4.24,-1.25 10.79,-3.75 l 2.07,-31.33 -8.71,-5.46 z"
       class="shp2"
       id="path899" />
    <path
       style="fill:#ff8b66"
       inkscape:connector-curvature="0"
       d="m 991.79,622.22 c 8.02,4.99 13.59,9.02 16.7,12.07 4.66,4.58 2,39.97 0,41.64 -2,1.66 -17.35,5.09 -20.29,3.17 -1.97,-1.28 -1.58,-5.4 1.14,-12.33 5.14,-1.11 7.34,-0.7 6.6,1.24 -0.74,1.95 -0.74,3.75 0,5.42 l 3.16,-1.25 c -1.03,-5.28 -1.03,-9.86 0,-13.74 1.56,-5.83 -10.85,-11.98 -12.35,-22.64 -1,-7.11 0.68,-11.64 5.04,-13.58 z"
       class="shp3"
       id="path901" />
    <path
       style="fill:#ce364c"
       inkscape:connector-curvature="0"
       d="m 867.04,604.98 c -3.86,-16.65 12.66,-22.53 35.64,-19.7 26.64,3.29 81.36,10.26 93.26,39.13 2.59,7.59 0.53,13.21 -6.17,16.85 -28.11,15.29 -115.49,-5.03 -122.73,-36.28 z"
       class="shp12"
       id="path903" />
    <path
       style="fill:#a02e44"
       inkscape:connector-curvature="0"
       d="m 950.39,593.95 c -21.17,-8.8 -37.03,-13.64 -47.57,-14.53 -15.82,-1.34 21.87,12.49 47.57,14.53 z"
       class="shp14"
       id="path905" />
    <g
       id="g911">
      <path
         style="fill:#ff8b66"
         inkscape:connector-curvature="0"
         d="m 1188.45,308.04 c -1.6,1.82 -3.72,6.27 -6.37,13.36 -1.66,8.92 -2.63,13.85 -5.76,17.95 -2.06,2.73 -2.55,6.51 -1.46,11.33 -8.09,4.15 -15.53,3.66 -22.32,-1.47 0.71,-4.77 0.71,-7.84 0,-9.19 -2.1,-4.07 -8.83,-6.23 -11.12,-14.42 -1.54,-5.49 -4.6,-11.29 -9.2,-17.39 1.31,-2.84 3.17,-3.4 5.56,-1.67 3.64,2.63 5.93,9.2 7.9,9.86 0.4,0.14 0.8,0.24 1.2,0.27 0.02,0 0.05,0.01 0.1,0.03 1.5,0.2 3.03,-0.13 3.96,-1.03 0.07,-0.03 0.17,-0.1 0.23,-0.2 3.3,-3.83 4.07,-15.09 3.93,-20.12 -0.19,-6.99 0.07,-16.65 4.33,-15.02 4.27,1.63 0.37,5.53 3.67,20.95 l 1.6,0.2 c 0.3,1.1 3.23,-9.36 3.93,-19.18 0.5,-6.77 4.93,-4.27 5.89,-2.14 1,2.14 -0.5,8.86 -0.8,13.76 -0.23,3.23 -0.5,6.59 -0.66,8.59 l 1.86,1.04 c 6.73,-11.73 4.43,-16.59 8.36,-16.82 3.9,-0.24 2.5,9.65 0.4,13.42 -0.9,1.63 -1.76,5.03 -2.46,8.36 6.89,-7.96 6.13,-12.13 9.29,-11.63 3.27,0.54 0.33,8.43 -2.06,11.16 z"
         class="shp3"
         id="path907" />
      <path
         style="fill:#ef6e4b"
         inkscape:connector-curvature="0"
         d="m 1158.67,326.39 c -2.33,-6.42 -10.66,-9.36 -11.69,-9.69 1.5,0.2 3.03,-0.13 3.96,-1.03 5.44,2.44 8.02,6.02 7.73,10.72 z"
         class="shp2"
         id="path909" />
    </g>
    <g
       id="g921">
      <path
         style="fill:#cfd8dc"
         inkscape:connector-curvature="0"
         d="m 1013.98,1178.31 c -3.07,-6.27 -3.24,-10.75 -0.5,-13.44 4.11,-4.04 8.95,3.45 15.96,1.78 7.02,-1.66 8.65,-6.65 10.47,0.15 1.83,6.79 -0.39,28.17 -25.93,11.51 z"
         class="shp5"
         id="path913" />
      <path
         style="fill:#adbec4"
         inkscape:connector-curvature="0"
         d="m 1040.4,1177.9 c -12.57,4.45 -22.11,4.45 -28.62,0 l 2.48,8.16 c 13.66,1.44 21.43,0.44 23.31,-3 z"
         class="shp0"
         id="path915" />
      <path
         style="fill:#adbec4"
         inkscape:connector-curvature="0"
         d="m 1040.14,1188.03 c -11.5,-1.59 -20.03,-0.96 -25.58,1.89 v 4.05 c 15,-3.5 24.93,-3.5 29.78,0 z"
         class="shp0"
         id="path917" />
      <path
         style="fill:#adbec4"
         inkscape:connector-curvature="0"
         d="m 1013.73,1202.37 c 2.23,-5.43 6.85,-8.35 13.85,-8.74 7,-0.39 12.86,1.34 17.58,5.2 -11.1,-4.58 -21.58,-3.4 -31.43,3.54 z"
         class="shp0"
         id="path919" />
    </g>
    <g
       id="g935">
      <path
         style="fill:#cfd8dc"
         inkscape:connector-curvature="0"
         d="m 1458,1089.04 c -22.09,29.49 -48.17,47.06 -78.23,52.73 -8.73,-6.98 -13.21,-14.59 -13.43,-22.85 -8.41,-7.51 -13.18,-13.06 -14.29,-16.66 -1.66,-5.39 10.83,-21.65 18.32,-19.98 5.17,1.13 8.16,5.26 9.53,7.69 -6.2,-13.95 -1.23,-18.82 7.56,-17.62 9.16,1.24 0.5,3.4 7.06,10.76 0.47,0.53 1,0.97 1.57,1.37 1.2,0.83 2.63,1.4 4.26,1.7 1.43,0.26 3.03,0.33 4.7,0.23 0.86,-0.03 1.76,-0.13 2.66,-0.27 1.7,-0.26 3.43,-0.7 5.23,-1.26 2.76,-0.87 5.63,-2.1 8.43,-3.63 11.45,-6.27 16.28,-8.4 25.01,-6.17 5.8,1.47 8.65,4.4 8.56,8.8 z"
         class="shp5"
         id="path923" />
      <path
         style="fill:#adbec4"
         inkscape:connector-curvature="0"
         d="m 1458,1089.04 c -22.09,29.49 -48.17,47.06 -78.23,52.73 23.01,-9.9 44.16,-22.85 58.62,-38.81 9.61,-10.63 16.15,-15.27 19.61,-13.92 z"
         class="shp0"
         id="path925" />
      <g
         id="g933">
        <path
           style="fill:#adbec4"
           inkscape:connector-curvature="0"
           d="m 1396.09,1084.48 c 1.2,0.83 2.63,1.4 4.26,1.7 -5.84,1.17 -8.97,4.37 -9.39,9.59 l -3.73,-1.2 c 0.8,-9.39 8.22,-10.06 8.86,-10.09 z"
           class="shp0"
           id="path927" />
        <path
           style="fill:#adbec4"
           inkscape:connector-curvature="0"
           d="m 1401.98,1096.7 -3.9,0.13 c -1.46,-5.53 0.44,-8.82 2.27,-10.65 1.43,0.26 3.03,0.33 4.7,0.23 -3.09,3.04 -4.11,6.47 -3.07,10.29 z"
           class="shp0"
           id="path929" />
        <path
           style="fill:#adbec4"
           inkscape:connector-curvature="0"
           d="m 1411.61,1094.57 -3.87,0.5 c -1.5,-3.93 -1.06,-6.86 -0.03,-8.93 1.7,-0.26 3.43,-0.7 5.23,-1.26 -2.13,3.17 -2.58,6.4 -1.33,9.69 z"
           class="shp0"
           id="path931" />
      </g>
    </g>
    <path
       style="fill:#ce364c"
       inkscape:connector-curvature="0"
       d="m 1040.74,683.84 c 5.7,30.77 2.79,52.29 -8.74,64.55 -17.3,18.39 -5.85,3.28 -0.7,-20.44 5.16,-23.71 1.23,-48.69 9.44,-44.11 z"
       class="shp12"
       id="path937" />
    <path
       style="fill:#ce364c"
       inkscape:connector-curvature="0"
       d="m 1120.56,663.24 c 18.18,5.97 32.02,17.35 41.53,34.14 -12.69,-27.34 -26.54,-38.72 -41.53,-34.14 z"
       class="shp12"
       id="path939" />
  </g>
  <g
     id="g1021">
    <g
       id="g947">
      <path
         style="fill:#ff8b66"
         inkscape:connector-curvature="0"
         d="m 412.42,320.3 c 2.42,0.04 7.15,1.46 14.17,4.25 7.73,4.76 12.04,7.35 17.17,7.78 3.41,0.31 5.82,3.39 7.22,9.25 13.45,2.94 20.55,0.17 21.31,-8.31 -7.52,-10.64 -11.54,-16.68 -12.07,-18.11 -1.6,-4.29 1.31,-10.73 -3.22,-17.93 -3.03,-4.82 -5.27,-10.98 -6.71,-18.49 -2.99,-0.93 -4.64,0.07 -4.97,3.01 -0.49,4.46 2.83,10.56 2.01,12.47 -0.17,0.38 -0.37,0.75 -0.61,1.06 -0.01,0.02 -0.03,0.05 -0.04,0.1 -0.86,1.25 -2.14,2.16 -3.43,2.25 -0.07,0.02 -0.18,0.05 -0.3,0.03 -5.06,-0.12 -13.91,-7.11 -17.55,-10.59 -5.05,-4.84 -12.39,-11.13 -14.04,-6.87 -1.66,4.25 3.85,3.98 13.07,16.78 l -0.93,1.31 c 0.61,0.97 -9.11,-3.88 -16.86,-9.96 -5.34,-4.17 -6.47,0.79 -5.54,2.94 0.91,2.17 6.91,5.57 10.74,8.64 2.55,1.99 5.22,4.06 6.81,5.27 l -0.48,2.08 c -13.21,-2.88 -15.27,-7.85 -18.08,-5.1 -2.79,2.74 5.48,8.34 9.68,9.31 1.81,0.43 4.91,2.07 7.85,3.79 -10.53,-0.24 -13.1,-3.6 -14.86,-0.92 -1.79,2.78 6.03,5.9 9.66,5.96 z"
         class="shp3"
         id="path943" />
      <path
         style="fill:#ef6e4b"
         inkscape:connector-curvature="0"
         d="m 446.01,310.55 c -3.2,-6.04 0.22,-14.18 0.67,-15.17 -0.86,1.25 -2.14,2.16 -3.43,2.25 -1.84,5.67 -0.92,9.98 2.76,12.92 z"
         class="shp2"
         id="path945" />
    </g>
    <g
       id="g953">
      <path
         style="fill:#ff8b66"
         inkscape:connector-curvature="0"
         d="m 1005.99,320.3 c -2.43,0.04 -7.15,1.46 -14.17,4.25 -7.74,4.76 -12.04,7.35 -17.18,7.78 -3.41,0.31 -5.81,3.39 -7.21,9.25 -13.45,2.94 -20.56,0.17 -21.32,-8.31 7.52,-10.64 11.55,-16.68 12.07,-18.11 1.61,-4.29 -1.31,-10.73 3.22,-17.93 3.04,-4.82 5.28,-10.98 6.72,-18.49 2.98,-0.93 4.64,0.07 4.97,3.01 0.48,4.46 -2.84,10.56 -2.01,12.47 0.17,0.38 0.36,0.75 0.61,1.06 0.01,0.02 0.02,0.05 0.04,0.1 0.86,1.25 2.13,2.16 3.42,2.25 0.07,0.02 0.19,0.05 0.31,0.03 5.05,-0.12 13.91,-7.11 17.55,-10.59 5.05,-4.84 12.39,-11.13 14.04,-6.87 1.65,4.25 -3.85,3.98 -13.07,16.78 l 0.93,1.31 c -0.62,0.97 9.1,-3.88 16.85,-9.96 5.35,-4.17 6.47,0.79 5.54,2.94 -0.91,2.17 -6.9,5.57 -10.73,8.64 -2.55,1.99 -5.22,4.06 -6.82,5.27 l 0.49,2.08 c 13.21,-2.88 15.27,-7.85 18.08,-5.1 2.79,2.74 -5.48,8.34 -9.68,9.31 -1.81,0.43 -4.91,2.07 -7.85,3.79 10.53,-0.24 13.1,-3.6 14.85,-0.92 1.8,2.78 -6.02,5.9 -9.65,5.96 z"
         class="shp3"
         id="path949" />
      <path
         style="fill:#ef6e4b"
         inkscape:connector-curvature="0"
         d="m 972.39,310.55 c 3.2,-6.04 -0.22,-14.18 -0.66,-15.17 0.86,1.25 2.13,2.16 3.42,2.25 1.85,5.67 0.93,9.98 -2.76,12.92 z"
         class="shp2"
         id="path951" />
    </g>
    <path
       style="fill:#0e3944"
       inkscape:connector-curvature="0"
       d="m 828.69,931.84 -38.75,-239.97 -77.61,8.66 -77.61,-8.66 -38.75,239.97 -18.62,232.74 c 3.95,12.86 18.83,14.85 44.64,5.96 19.14,-143.91 30.2,-217.45 33.16,-220.62 2.96,-3.17 19.64,-51.76 50.05,-145.76 h 14.26 c 30.41,94 47.09,142.59 50.05,145.76 2.96,3.17 14.02,76.71 33.16,220.62 25.81,8.89 40.69,6.9 44.64,-5.96 z"
       class="shp1"
       id="path955" />
    <path
       style="fill:#0c476b"
       inkscape:connector-curvature="0"
       d="m 687.88,459.48 c 4.9,4.77 29.02,13.37 41.76,0 l 8.63,8.48 c -6.56,15.44 -15.6,23.42 -27.12,23.96 -11.52,0.54 -21.44,-6.32 -29.77,-20.6 z"
       class="shp16"
       id="path957" />
    <path
       style="fill:#0c476b"
       inkscape:connector-curvature="0"
       d="m 756.18,456.86 c 19.25,-8.28 59.96,-23.43 122.13,-45.46 41.8,-52.36 66.95,-82.43 75.48,-90.2 9.25,1.66 15.23,8.26 17.94,19.77 -26.91,57.63 -47.69,94.7 -62.32,111.19 -14.63,16.5 -58.99,42.59 -133.08,78.27 z"
       class="shp16"
       id="path959" />
    <path
       style="fill:#ffb878"
       inkscape:connector-curvature="0"
       d="m 655.15,455.08 c 5.72,-3.62 22.96,4.19 51.7,23.42 37.37,-19.85 60.44,-27.85 69.21,-24.01 7.9,10.58 13.44,29.46 16.62,56.65 3.17,27.19 4.86,96.72 5.07,208.61 -25.12,8.89 -54.67,13.33 -88.66,13.33 -38.73,0 -68.53,-5.56 -89.37,-16.66 -6.91,-154.92 4.9,-242.03 35.43,-261.34 z"
       class="shp15"
       id="path961" />
    <path
       style="fill:#ef6e4b"
       inkscape:connector-curvature="0"
       d="m 690.16,450.72 c 4.14,13.02 4.14,22.04 0,27.05 4.3,9.02 10.31,13.73 18.03,14.13 8.93,0.46 14.94,-4.25 18.04,-14.13 -4.72,-12.57 -4.72,-21.07 0,-25.48 z"
       class="shp2"
       id="path963" />
    <g
       id="g997">
      <path
         style="fill:#8b383e"
         inkscape:connector-curvature="0"
         d="m 674.68,431.5 c -8.71,-16.76 -12.2,-34.1 -10.48,-52.02 2.59,-26.87 43.08,-33.03 70.37,-19.83 -5.4,-5.28 -7.05,-8.65 -4.93,-10.12 2.11,-1.47 4.99,2.49 8.63,11.88 5.75,-1.76 9.06,-1.76 9.94,0 0.88,1.76 -2.06,3.13 -8.83,4.09 11.74,6.51 12.13,27.09 1.16,61.73 z"
         class="shp10"
         id="path965" />
      <path
         style="fill:#ff8b66"
         inkscape:connector-curvature="0"
         d="m 672.72,415.58 c -6.5,-6.48 -10.14,-5.94 -10.94,1.64 -1.39,13.17 10.57,18.47 12.9,14.28 1.56,-2.79 0.91,-8.1 -1.96,-15.92 z"
         class="shp3"
         id="path967" />
      <path
         style="fill:#ff8b66"
         inkscape:connector-curvature="0"
         d="m 740.93,416.26 c 6.5,-6.48 10.14,-5.93 10.94,1.65 1.39,13.16 -10.57,18.47 -12.9,14.28 -1.56,-2.79 -0.91,-8.1 1.96,-15.93 z"
         class="shp3"
         id="path969" />
      <path
         style="fill:#ff8b66"
         inkscape:connector-curvature="0"
         d="m 705.8,463.27 c -21.62,0 -33.82,-14.12 -33.82,-56.47 0,-21.84 11.12,-35.24 35.33,-35.24 24.21,0 34.41,13.4 34.41,35.24 0,45.5 -13.59,56.47 -35.92,56.47 z"
         class="shp3"
         id="path971" />
      <path
         style="fill:#db614d"
         inkscape:connector-curvature="0"
         d="m 734.56,421.91 c 0.38,2.17 -1.52,4.32 -4.24,4.79 -2.71,0.47 -5.22,-0.9 -5.6,-3.08 -0.38,-2.17 1.51,-4.32 4.23,-4.79 2.72,-0.47 5.23,0.9 5.61,3.08 z"
         class="shp6"
         id="path973" />
      <path
         style="fill:#db614d"
         inkscape:connector-curvature="0"
         d="m 690.1,423.09 c -0.14,2.2 -2.49,3.84 -5.25,3.66 -2.75,-0.18 -4.86,-2.11 -4.72,-4.31 0.15,-2.2 2.49,-3.84 5.24,-3.66 2.76,0.18 4.87,2.11 4.73,4.31 z"
         class="shp6"
         id="path975" />
      <g
         id="g979">
        <path
           style="fill:#8b383e"
           inkscape:connector-curvature="0"
           d="m 724.67,399.93 c -0.28,0 -0.57,-0.11 -0.78,-0.33 -3,-3.14 -8.24,-3.01 -8.32,-3.01 -0.58,0.01 -1.09,-0.45 -1.11,-1.04 -0.02,-0.6 0.45,-1.1 1.04,-1.12 0.23,-0.01 6.3,-0.15 9.95,3.68 0.41,0.43 0.4,1.11 -0.03,1.53 -0.21,0.2 -0.48,0.29 -0.75,0.29 z"
           class="shp10"
           id="path977" />
      </g>
      <g
         id="g983">
        <path
           style="fill:#8b383e"
           inkscape:connector-curvature="0"
           d="m 683.97,399.93 c -0.26,0 -0.53,-0.09 -0.74,-0.29 -0.43,-0.42 -0.45,-1.1 -0.04,-1.53 3.65,-3.83 9.71,-3.69 9.95,-3.68 0.59,0.02 1.06,0.52 1.04,1.12 -0.02,0.59 -0.54,1.05 -1.11,1.04 -0.04,-0.01 -5.35,-0.1 -8.31,3.01 -0.22,0.22 -0.5,0.33 -0.79,0.33 z"
           class="shp10"
           id="path981" />
      </g>
      <path
         style="fill:#1a4850"
         inkscape:connector-curvature="0"
         d="m 722.8,411.4 c 0,2.69 -1.21,4.86 -2.7,4.86 -1.49,0 -2.7,-2.17 -2.7,-4.86 0,-2.68 1.21,-4.86 2.7,-4.86 1.49,0 2.7,2.18 2.7,4.86 z"
         class="shp7"
         id="path985" />
      <path
         style="fill:#1a4850"
         inkscape:connector-curvature="0"
         d="m 693.94,411.4 c 0,2.69 -1.21,4.86 -2.7,4.86 -1.49,0 -2.7,-2.17 -2.7,-4.86 0,-2.68 1.21,-4.86 2.7,-4.86 1.49,0 2.7,2.18 2.7,4.86 z"
         class="shp7"
         id="path987" />
      <path
         style="fill:#1a4850"
         inkscape:connector-curvature="0"
         d="m 693.94,440.12 c 12.71,1.64 22.33,0.89 28.86,-2.25 -3.69,8.65 -9.01,12.59 -15.95,11.81 -6.94,-0.77 -11.24,-3.96 -12.91,-9.56 z"
         class="shp7"
         id="path989" />
      <path
         style="fill:#8b383e"
         inkscape:connector-curvature="0"
         d="m 739.47,421.06 c -0.45,-15.67 -3.73,-29.53 -9.83,-41.58 -10.76,4.97 -17.32,6.87 -19.69,5.7 -2.37,-1.17 -1.24,-3.07 3.39,-5.7 -17.75,5.85 -27.16,8.19 -28.22,7.02 -1.07,-1.17 1.87,-3.51 8.82,-7.02 l -16.59,5.7 c -3.4,14.1 -4.4,26.06 -2.99,35.88 -4.75,-8.2 -7.42,-15.13 -8.01,-20.79 -0.88,-8.49 2.85,-32.7 27.83,-34.45 24.98,-1.77 39.01,3.9 45.2,15.37 6.19,11.47 5.42,25.58 0.09,39.87 z"
         class="shp10"
         id="path991" />
      <g
         id="g995">
        <path
           style="fill:#db614d"
           inkscape:connector-curvature="0"
           d="m 709.56,433.33 c -2.09,0 -4.23,-0.54 -4.87,-0.72 l 0.61,-2.21 c 2.27,0.62 5.82,1 6.6,0.08 0.27,-0.32 0.16,-1.06 -0.3,-2.02 -3.12,-6.65 -3.77,-23.47 -3.8,-24.18 l 2.3,-0.09 c 0,0.18 0.66,17.07 3.58,23.29 0.9,1.89 0.89,3.4 -0.02,4.48 -0.89,1.05 -2.48,1.37 -4.1,1.37 z"
           class="shp6"
           id="path993" />
      </g>
    </g>
    <path
       style="fill:#105e99"
       inkscape:connector-curvature="0"
       d="m 733.48,465.67 c 26.08,80.95 40.36,154.37 42.85,220.25 9.41,2.59 19.42,-3.33 30.01,-17.77 15.9,-21.65 6.45,-193.13 -24.01,-221.69 -9.21,-2.1 -25.5,4.3 -48.85,19.21 z"
       class="shp17"
       id="path999" />
    <path
       style="fill:#0c476b"
       inkscape:connector-curvature="0"
       d="m 739.86,486.9 c 4.67,-10.84 5.96,-19.98 3.89,-27.42 -2.07,-7.44 -6.78,-7.44 -14.11,0 2.96,12.18 6.37,21.32 10.22,27.42 z"
       class="shp16"
       id="path1001" />
    <path
       style="fill:#0c476b"
       inkscape:connector-curvature="0"
       d="m 661.34,456.86 c -19.25,-8.28 -59.96,-23.43 -122.13,-45.46 -41.9,-53.89 -67.11,-84.72 -75.64,-92.49 -10.55,5.97 -16.18,15.13 -16.89,27.48 26.32,54.02 46.8,89.28 61.43,105.77 14.63,16.5 58.99,42.59 133.08,78.27 z"
       class="shp16"
       id="path1003" />
    <path
       style="fill:#105e99"
       inkscape:connector-curvature="0"
       d="m 684.04,465.67 c -26.08,80.95 -40.36,154.37 -42.85,220.25 -9.41,2.59 -19.42,-3.33 -30.01,-17.77 -15.9,-21.65 -6.45,-193.13 24.01,-221.69 9.21,-2.1 25.5,4.3 48.85,19.21 z"
       class="shp17"
       id="path1005" />
    <path
       style="fill:#0c476b"
       inkscape:connector-curvature="0"
       d="m 677.66,486.9 c -4.67,-10.84 -5.96,-19.98 -3.89,-27.42 2.07,-7.44 6.78,-7.44 14.11,0 -2.96,12.18 -6.37,21.32 -10.22,27.42 z"
       class="shp16"
       id="path1007" />
    <g
       id="g1013">
      <path
         style="fill:#662c33"
         inkscape:connector-curvature="0"
         d="m 881.82,1227.17 h -77.68 c -3.62,-20.59 -2.54,-41.18 3.23,-61.79 l 35.51,-6.09 c 3.23,19.51 7.13,27.21 12.52,31.17 0.02,0 0.04,0 0.04,0 3.93,2.87 8.62,3.8 14.48,5.83 6.7,2.33 10.23,6.56 12,11.16 2.33,6.08 2.29,12.66 -0.1,19.72 z"
         class="shp11"
         id="path1009" />
      <path
         style="fill:#8b383e"
         inkscape:connector-curvature="0"
         d="m 881.92,1207.45 c -19.16,2.4 -61.22,6.49 -58.66,-4.6 2.13,-9.26 19.89,-11.76 32.14,-12.39 0.02,0 0.04,0 0.04,0 3.93,2.87 8.62,3.8 14.48,5.83 6.7,2.33 10.23,6.56 12,11.16 z"
         class="shp10"
         id="path1011" />
    </g>
    <g
       id="g1019">
      <path
         style="fill:#662c33"
         inkscape:connector-curvature="0"
         d="m 621.68,1227.17 h -77.67 c -1.64,-4.84 -2.09,-9.83 -1.33,-14.96 0.93,-6.26 4.26,-12.82 13.22,-15.92 6.73,-2.33 11.89,-3.2 16.12,-7.16 4.6,-4.33 8.03,-12.32 10.93,-29.84 l 35.5,6.09 c 5.75,20.61 6.83,41.2 3.23,61.79 z"
         class="shp11"
         id="path1015" />
      <path
         style="fill:#8b383e"
         inkscape:connector-curvature="0"
         d="m 542.68,1212.21 c 0.93,-6.26 4.26,-12.82 13.22,-15.92 6.73,-2.33 11.89,-3.2 16.12,-7.16 9.83,3.03 23.58,8.59 27.85,17.02 5.92,11.56 -39.47,9.73 -57.19,6.06 z"
         class="shp10"
         id="path1017" />
    </g>
  </g>
  <g
     id="g1109">
    <g
       id="g1031">
      <path
         style="fill:#164353"
         inkscape:connector-curvature="0"
         d="m 1179.32,1221.6 c 0,2.18 -0.11,4.03 -0.33,5.57 h -94.36 c 0,-1.87 0.03,-3.73 0.13,-5.57 0.71,-16.45 3.66,-31.82 8.86,-46.09 l 23.58,-10.13 c 2.03,12.16 7.26,19.92 13.82,24.98 1.74,1.37 3.53,2.5 5.4,3.47 0.87,0.46 1.73,0.9 2.63,1.3 1.97,0.89 4,1.63 6.03,2.23 8.33,2.53 16.75,3.06 22.65,3.96 10.06,1.57 11.59,13.19 11.59,20.28 z"
         class="shp4"
         id="path1023" />
      <path
         style="fill:#225866"
         inkscape:connector-curvature="0"
         d="m 1179.32,1221.6 c 0,2.18 -0.11,4.03 -0.33,5.57 h -94.36 c 0,-1.87 0.03,-3.73 0.13,-5.57 z"
         class="shp18"
         id="path1025" />
      <path
         style="fill:#225866"
         inkscape:connector-curvature="0"
         d="m 1136.42,1193.83 -13.09,4.19 -2.77,-4.79 10.46,-2.87 c 1.74,1.37 3.53,2.5 5.4,3.47 z"
         class="shp18"
         id="path1027" />
      <path
         style="fill:#225866"
         inkscape:connector-curvature="0"
         d="m 1145.08,1197.36 -8.83,5.86 -5.43,-2.13 8.23,-5.96 c 1.97,0.89 4,1.63 6.03,2.23 z"
         class="shp18"
         id="path1029" />
    </g>
    <g
       id="g1041">
      <path
         style="fill:#164353"
         inkscape:connector-curvature="0"
         d="m 818.8,1221.6 c -0.16,2.14 -0.51,3.99 -1.07,5.57 h -62.85 c -0.8,-1.83 -1.37,-3.67 -1.77,-5.57 -4.13,-20.05 7.73,-42.34 35.58,-66.88 l 13.25,17.69 c -1.02,18.87 2.21,30.28 9.7,34.21 6.72,3.53 7.59,10.19 7.16,14.98 z"
         class="shp4"
         id="path1033" />
      <path
         style="fill:#225866"
         inkscape:connector-curvature="0"
         d="m 753.11,1221.6 h 65.69 c -0.16,2.14 -0.51,3.99 -1.07,5.57 h -62.85 c -0.8,-1.83 -1.37,-3.67 -1.77,-5.57 z"
         class="shp18"
         id="path1035" />
      <path
         style="fill:#225866"
         inkscape:connector-curvature="0"
         d="m 808.76,1204.36 c -17.65,-4.02 -30.5,-3.43 -38.55,1.78 v -4.37 c 14.85,-7.22 27.7,-6.35 38.55,2.59 z"
         class="shp18"
         id="path1037" />
      <path
         style="fill:#225866"
         inkscape:connector-curvature="0"
         d="m 803.52,1197.64 c -11.27,-5.15 -22.38,-5.15 -33.31,0 l 1.87,-4.4 c 13.06,-4.94 23.54,-3.47 31.44,4.4 z"
         class="shp18"
         id="path1039" />
    </g>
    <path
       style="fill:#8bbddb"
       inkscape:connector-curvature="0"
       d="m 1150.84,954.21 c 0.02,16.85 -7.45,93.98 -22.41,231.39 -14.97,1.49 -28.45,0.73 -40.44,-2.27 -4.11,-69.63 -6.36,-134.39 -6.76,-194.28 l -107.59,-80.64 -0.26,-0.2 c -0.27,1.22 -0.65,2.92 -1.13,5.1 -5.33,23.65 -27.88,122.7 -37.28,145.39 -7.12,17.23 -49.65,62.07 -127.59,134.54 -14.48,-2 -27.86,-8.25 -40.14,-18.73 27.98,-46.41 61.04,-92.89 99.19,-139.43 4.46,-25.08 7.66,-80.87 9.56,-122.57 0.03,-0.63 0.06,-1.3 0.1,-1.93 0.84,-18.83 1.47,-35.35 1.9,-49.56 l -19.72,-40.44 125.27,-46.03 28.08,35.94 c 4.28,3.97 9.8,9.14 16.55,15.49 0.47,0.43 0.93,0.86 1.4,1.3 37.6,35.47 121.27,115.61 121.27,126.93 z"
       class="shp19"
       id="path1043" />
    <g
       id="g1051">
      <path
         style="fill:#6097b2"
         inkscape:connector-curvature="0"
         d="m 875.99,912.51 c 0.03,-0.63 0.06,-1.3 0.1,-1.93 26.38,-14.32 21.95,-37.17 21.88,-37.41 l 1.63,-0.33 c 0.07,0.23 4.8,24.78 -23.61,39.67 z"
         class="shp8"
         id="path1045" />
      <path
         style="fill:#6097b2"
         inkscape:connector-curvature="0"
         d="m 971.71,892.26 c 0.9,4.99 1.57,10.39 1.93,16.15 l -0.26,-0.2 c -0.27,1.22 -0.65,2.92 -1.13,5.1 -1.17,-39.17 -17.32,-62.32 -17.52,-62.59 l 1.36,-0.96 c 0.17,0.2 10.36,14.92 15.29,40.6 19.05,-16.92 0.4,-51.59 0.2,-51.93 l 1.47,-0.8 c 0.2,0.37 19.95,37.08 -1.34,54.63 z"
         class="shp8"
         id="path1047" />
      <path
         style="fill:#6097b2"
         inkscape:connector-curvature="0"
         d="m 1029.57,827.28 c -0.04,0.03 -0.1,0.03 -0.13,0.06 -0.77,0.3 -1.67,0.43 -2.6,0.43 -9.23,0 -24.72,-12.92 -25.45,-13.55 l 1.1,-1.27 c 5.03,4.27 19.05,14.49 25.68,13.03 0.47,0.43 0.93,0.86 1.4,1.3 z"
         class="shp8"
         id="path1049" />
    </g>
    <path
       style="fill:#008080"
       inkscape:connector-curvature="0"
       d="m 867.04,604.98 c 25.4,-4.09 44.47,-2.08 57.2,6.03 12.72,8.12 27.44,22.77 44.16,43.94 -19.84,2.62 -30.89,10.67 -33.13,24.15 -14.42,-34.33 -37.16,-59.03 -68.23,-74.12 z"
       class="shp0"
       id="path1053" />
    <path
       style="fill:#20b2aa;fill-opacity:1"
       inkscape:connector-curvature="0"
       d="m 809.71,624.85 c -16.11,8.71 -43.06,41.43 -44.28,61.55 -1.18,19.62 13.35,37.67 23.15,53.01 30.58,47.88 62.78,90.18 76.46,146.34 0.09,0.35 69.94,28.07 151.93,-70.48 -30.88,-41.55 -51.66,-80.02 -62.33,-115.39 -6.52,-21.6 -13.14,-44.55 -25.66,-63.59 -13.78,-20.97 -37.39,-33.31 -61.94,-31.31 -20.78,1.68 -41.45,11.28 -57.33,19.87 z"
       class="shp5"
       id="path1055" />
    <path
       style="fill:#483737"
       inkscape:connector-curvature="0"
       d="m 802.95,604.77 c 6.87,11.74 8.72,20.84 5.55,27.3 23.58,8.14 35.37,5.62 35.37,-7.58 -4.44,-9.89 -5.83,-18.03 -4.15,-24.43 z"
       class="shp2"
       id="path1057" />
    <path
       style="fill:#483737"
       inkscape:connector-curvature="0"
       d="m 881.56,725.39 c -13.12,3.73 -21.33,7.92 -24.64,12.56 -3.31,4.65 -6.44,12.18 -9.39,22.59 h 34.03 l 6.4,-11.77 7.49,-15.69 z"
       class="shp2"
       id="path1059" />
    <g
       id="g1099">
      <path
         style="fill:#164353"
         inkscape:connector-curvature="0"
         d="m 849.03,585.12 c 9.21,-3.86 10.84,-19.64 4.88,-47.35 -5.92,-27.53 -14.45,-31.64 -19.97,-31.88 -4.49,-6.77 -14.54,-8.54 -30.13,-5.29 -16.02,3.33 -28.81,13.06 -34.43,31.06 -5.88,18.79 5.87,59.07 21.34,63.08 z"
         class="shp4"
         id="path1061" />
      <path
         style="fill:#6c5353"
         inkscape:connector-curvature="0"
         d="m 852.3,557.04 c 5.8,-8.08 9.8,-8.14 11.99,-0.17 3.81,13.84 -8.04,21.62 -11.28,17.55 -2.16,-2.71 -2.4,-8.5 -0.71,-17.38 z"
         class="shp3"
         id="path1063" />
      <path
         style="fill:#6c5353"
         inkscape:connector-curvature="0"
         d="m 779.45,569.81 c -8.1,-5.78 -11.9,-4.55 -11.42,3.69 0.84,14.33 14.57,17.9 16.33,13 1.17,-3.26 -0.47,-8.82 -4.91,-16.69 z"
         class="shp3"
         id="path1065" />
      <path
         style="fill:#6c5353"
         inkscape:connector-curvature="0"
         d="m 825.33,613.9 c 23.12,-3.82 33.68,-21.07 26.2,-66.37 -3.85,-23.37 -18.1,-35.74 -44,-31.47 -25.9,4.27 -34.45,20.4 -30.59,43.77 8.03,48.68 24.5,58.01 48.39,54.07 z"
         class="shp3"
         id="path1067" />
      <path
         style="fill:#483737"
         inkscape:connector-curvature="0"
         d="m 787.26,574.73 c -0.02,2.39 2.39,4.35 5.38,4.38 2.99,0.02 5.43,-1.89 5.45,-4.28 0.02,-2.4 -2.38,-4.36 -5.37,-4.38 -2.99,-0.03 -5.44,1.89 -5.46,4.28 z"
         class="shp6"
         id="path1069" />
      <path
         style="fill:#483737"
         inkscape:connector-curvature="0"
         d="m 835.03,568.14 c 0.54,2.33 3.34,3.67 6.26,2.99 2.91,-0.67 4.83,-3.11 4.29,-5.44 -0.54,-2.33 -3.34,-3.67 -6.26,-2.99 -2.91,0.68 -4.83,3.12 -4.29,5.44 z"
         class="shp6"
         id="path1071" />
      <g
         id="g1075">
        <path
           style="fill:#1a4850"
           inkscape:connector-curvature="0"
           d="m 793.77,549.49 c -0.23,0 -0.46,-0.06 -0.66,-0.2 -0.53,-0.36 -0.67,-1.09 -0.31,-1.63 3.23,-4.74 9.72,-5.65 10,-5.69 0.68,-0.07 1.22,0.37 1.31,1.01 0.09,0.64 -0.36,1.23 -1,1.31 -0.06,0.01 -5.74,0.82 -8.37,4.69 -0.23,0.33 -0.6,0.51 -0.97,0.51 z"
           class="shp7"
           id="path1073" />
      </g>
      <g
         id="g1079">
        <path
           style="fill:#1a4850"
           inkscape:connector-curvature="0"
           d="m 837.31,542.31 c -0.25,0 -0.5,-0.08 -0.71,-0.24 -3.74,-2.82 -9.37,-1.76 -9.42,-1.75 -0.65,0.14 -1.25,-0.28 -1.38,-0.92 -0.13,-0.63 0.29,-1.25 0.92,-1.37 0.27,-0.06 6.71,-1.28 11.29,2.17 0.52,0.39 0.62,1.13 0.23,1.64 -0.23,0.31 -0.58,0.47 -0.93,0.47 z"
           class="shp7"
           id="path1077" />
      </g>
      <path
         style="fill:#1a4850"
         inkscape:connector-curvature="0"
         d="m 797.98,561.41 c 0.47,2.88 2.15,4.99 3.75,4.73 1.59,-0.27 2.5,-2.81 2.03,-5.68 -0.47,-2.87 -2.15,-4.98 -3.75,-4.72 -1.59,0.26 -2.5,2.8 -2.03,5.67 z"
         class="shp7"
         id="path1081" />
      <path
         style="fill:#1a4850"
         inkscape:connector-curvature="0"
         d="m 828.86,556.32 c 0.47,2.87 2.15,4.99 3.75,4.72 1.59,-0.26 2.5,-2.8 2.03,-5.67 -0.47,-2.87 -2.15,-4.99 -3.75,-4.73 -1.59,0.27 -2.5,2.81 -2.03,5.68 z"
         class="shp7"
         id="path1083" />
      <path
         style="fill:#1a4850"
         inkscape:connector-curvature="0"
         d="m 837.53,582.39 c -13.37,3.59 -23.77,4.67 -31.19,3.25 5.13,6.45 11.35,8.75 18.67,6.89 7.32,-1.86 11.5,-5.24 12.52,-10.14 z"
         class="shp7"
         id="path1085" />
      <path
         style="fill:#0e3944"
         inkscape:connector-curvature="0"
         d="m 838.48,526.5 c -17.4,12.6 -37.02,19.38 -58.86,20.34 l 0.92,29.16 c -20.35,-37.51 -10.4,-59.58 29.86,-66.22 40.26,-6.65 54.53,10.98 42.81,52.87 -1.24,-18.07 -6.15,-30.12 -14.73,-36.15 z"
         class="shp1"
         id="path1087" />
      <g
         id="g1091">
        <path
           style="fill:#483737"
           inkscape:connector-curvature="0"
           d="m 817.13,574.56 -0.17,-2.52 c 0.04,-0.01 3.52,-0.28 4.43,-2.43 0.37,-0.89 -1.11,-3.72 -2.42,-6.22 -1.82,-3.47 -4.08,-7.79 -5.04,-12.58 l 2.47,-0.5 c 0.89,4.44 3.06,8.58 4.81,11.91 1.94,3.7 3.34,6.38 2.51,8.37 -1.52,3.6 -6.38,3.95 -6.59,3.97 z"
           class="shp6"
           id="path1089" />
      </g>
      <path
         style="fill:#ce364c"
         inkscape:connector-curvature="0"
         d="m 852.64,526.57 c -29.27,-12.7 -57.71,-5.88 -85.34,20.45 -3.22,-21.33 -2.01,-34.5 3.63,-39.5 2.2,-1.96 4.57,-3.7 7.03,-5.23 19.39,-12.22 45.17,-11.99 56.99,-7.79 2.43,0.86 4.3,1.9 5.36,3 4.67,4.84 8.78,14.53 12.33,29.07 z"
         class="shp12"
         id="path1093" />
      <path
         style="fill:#cfd8dc"
         inkscape:connector-curvature="0"
         d="m 847.31,519.45 c -24.58,-4.87 -48.33,0.28 -71.25,15.45 -1.46,-13.77 -0.83,-24.64 1.9,-32.61 19.39,-12.22 45.17,-11.99 56.99,-7.79 4.6,5.24 8.72,13.55 12.36,24.95 z"
         class="shp5"
         id="path1095" />
      <path
         style="fill:#a02e44"
         inkscape:connector-curvature="0"
         d="m 770.93,543.26 c 3.9,-16.55 8.47,-27.16 13.72,-31.82 13.1,-11.63 49.91,-15.62 69.26,-8.63 12.9,4.66 12.9,14.04 0,28.13 -20.56,-14.72 -48.22,-10.62 -82.98,12.32 z"
         class="shp14"
         id="path1097" />
    </g>
    <path
       style="fill:#6c5353"
       inkscape:connector-curvature="0"
       d="m 827.87,708.22 c 10.05,15.56 23.62,27.92 40.73,37.07 21.4,-18.58 45.98,-27.03 73.73,-25.36 -23,41.5 -44.38,64.55 -64.13,69.14 -10.37,2.42 -34.33,-8.8 -71.86,-33.65 7.5,-26.41 14.67,-42.15 21.53,-47.2 z"
       class="shp3"
       id="path1101" />
    <path
       style="fill:#008080"
       inkscape:connector-curvature="0"
       d="m 772.38,665.91 c 13.79,-22.45 45.6,10.73 56.43,34.43 7.21,15.81 13.46,25.38 18.72,28.73 -21.19,8.85 -31.71,21.22 -31.56,37.11 -49.12,-34.19 -63.65,-67.62 -43.59,-100.27 z"
       class="shp0"
       id="path1103" />
    <path
       style="fill:#483737"
       inkscape:connector-curvature="0"
       d="m 868.6,735.04 c 12.91,-12.67 40.58,-27.26 83.03,-43.79 l -8.22,-25.86 c 4.86,-6.41 11.77,-9.61 20.73,-9.61 21.74,30.71 30.74,50.65 27,59.82 -3.51,8.59 -71.55,17.61 -122.54,19.44 z"
       class="shp2"
       id="path1105" />
    <path
       style="fill:#6c5353"
       inkscape:connector-curvature="0"
       d="m 938.32,697.46 c 0.34,-1.82 1.29,-3.83 2.86,-6.05 2.35,-3.32 1.71,-9.36 2.56,-11.24 0.84,-1.87 5.85,-9.53 9.17,-11.02 3.33,-1.49 7.69,-3.92 8.62,0.29 0.92,4.22 -5.96,3.03 -9.05,9.1 4.51,-1.46 8.55,-1.77 12.13,-0.92 5.36,1.27 6.88,6.17 0.25,6.01 -3.52,-0.09 -7.55,1.13 -12.09,3.64 4.59,0.69 6.52,2.09 5.78,4.21 -1.54,4.39 -9.94,1.69 -20.23,5.98 z"
       class="shp3"
       id="path1107" />
  </g>
  <g
     id="g1235">
    <path
       style="fill:#3e6575"
       inkscape:connector-curvature="0"
       d="m 467.46,784.18 c 3.79,9.71 13.46,22.89 29,39.55 37.97,-22.76 65.71,-29.35 83.23,-19.78 26.27,14.37 47.15,23.13 64.19,16.87 11.36,-4.17 -7.32,-50.55 -56.03,-139.14 l -94.73,-36.15 c -1.38,15.98 -5.68,25.38 -12.89,28.22 -10.83,4.26 -22.37,43.81 -21.6,51.3 0.52,5 3.46,24.71 8.83,59.13 z"
       class="shp20"
       id="path1111" />
    <path
       style="fill:#ef6e4b"
       inkscape:connector-curvature="0"
       d="m 574.05,824.6 c -16.29,31.92 -41.24,68.32 -74.86,109.21 -3.45,48.62 -49.63,111.17 -138.54,187.67 l -13.96,-10.99 c 52.95,-82.94 84.72,-137.13 95.31,-162.56 15.88,-38.14 -8.78,-73.09 64.3,-169.57 z"
       class="shp2"
       id="path1113" />
    <path
       style="fill:#662c33"
       inkscape:connector-curvature="0"
       d="m 496.3,739.86 c -14.02,26.85 -23.39,57.45 -28.09,91.78 l -9.58,24.16 c 22.65,12.21 47.04,20.54 73.19,24.98 l 15.73,-41.64 z"
       class="shp11"
       id="path1115" />
    <path
       style="fill:#ff8b66"
       inkscape:connector-curvature="0"
       d="m 605.97,820.82 c 6.95,35.16 9.84,79.2 8.7,132.12 27.36,40.34 29.75,118.06 7.17,233.16 h -17.76 c -9.68,-97.93 -18.22,-160.16 -25.62,-186.69 -11.1,-39.8 -52.1,-52.02 -54.32,-173.03 z"
       class="shp3"
       id="path1117" />
    <g
       id="g1127">
      <path
         style="fill:#8b383e"
         inkscape:connector-curvature="0"
         d="m 616.39,877.44 c -22.28,3.99 -53.03,5.07 -92.27,3.23 l -0.93,-6.63 -0.23,-1.7 -6.1,-42.9 c -3.77,-4.66 -7.6,-10.79 -11.49,-18.39 -0.7,-1.33 -1.36,-2.69 -2.03,-4.13 -7.93,-16.88 -14.95,-41.43 -7.06,-67.04 l 12.42,0.56 1.74,0.1 41.56,1.9 1.77,0.1 13.65,0.63 2.14,0.1 8.86,0.4 c 30.02,27.03 42.35,65.52 37,115.48 l 0.57,10.43 0.06,1.69 z"
         class="shp10"
         id="path1119" />
      <g
         id="g1125">
        <path
           style="fill:#662c33"
           inkscape:connector-curvature="0"
           d="m 510.44,740.54 c -1.17,3.43 -9.03,28.88 -5.07,70.51 -0.7,-1.33 -1.36,-2.69 -2.03,-4.13 -2.96,-38.07 3.86,-61.82 5.36,-66.48 0.2,-0.56 0.3,-0.83 0.3,-0.86 l 1.57,0.56 c 0,0.04 -0.07,0.17 -0.13,0.4 z"
           class="shp11"
           id="path1121" />
        <path
           style="fill:#662c33"
           inkscape:connector-curvature="0"
           d="m 616.05,871.27 c -11.82,3.04 -31.87,3.87 -50.92,3.87 -17.09,0 -33.31,-0.7 -41.94,-1.1 l -0.23,-1.7 c 14.95,0.73 54.32,2.27 79.7,-0.5 l -1.63,-26.81 c 0.4,-31.28 -9.06,-57.99 -18.18,-76.44 -23.12,-4.2 -29.48,-21.32 -30.85,-26.15 -0.2,-0.77 -0.3,-1.23 -0.3,-1.27 l 1.64,-0.26 c 0,0.03 0.13,0.63 0.43,1.63 1.5,5 7.69,19.89 28.11,24.15 -6.16,-12.03 -11.99,-20.25 -14.46,-23.52 -0.73,-1 -1.19,-1.56 -1.23,-1.6 l 1.27,-1.06 c 0.06,0.07 0.83,1 2.1,2.76 7.72,10.49 33.8,49.96 33.14,101.69 l 1.63,26.68 c 4.43,-0.53 8.39,-1.2 11.66,-2.06 z"
           class="shp11"
           id="path1123" />
      </g>
    </g>
    <path
       style="fill:#8bbddb"
       inkscape:connector-curvature="0"
       d="m 530.95,559.16 c -8.83,-4.87 -45.1,5.18 -108.78,30.16 -9.43,16.8 -11.2,28.5 -5.33,35.09 8.81,9.89 40.07,5.53 49.65,0 6.38,-3.68 18.03,-6.92 34.94,-9.71 z"
       class="shp19"
       id="path1129" />
    <path
       style="fill:#f24052"
       inkscape:connector-curvature="0"
       d="m 615.43,479.63 c 13.16,5.07 22.14,15.19 26.95,30.35 7.22,22.73 -14.36,80.29 -6.9,106.75 7.46,26.45 6.3,76.41 -16.99,86.96 -23.29,10.55 -71.06,-8.32 -81.32,-37.19 -10.26,-28.87 -5.83,-138.23 13.89,-175.42 19.71,-37.2 59.62,-18.46 64.37,-11.45 z"
       class="shp13"
       id="path1131" />
    <path
       style="fill:#8bbddb"
       inkscape:connector-curvature="0"
       d="m 592.75,577.71 c 3.47,3.74 9.67,2.28 18.59,-4.38 -0.18,33.07 -5.08,50.87 -14.69,53.41 -14.42,3.8 -51.17,-39.08 -49.66,-50.74 1.52,-11.66 34.22,-10.73 45.76,1.71 z"
       class="shp19"
       id="path1133" />
    <path
       style="fill:#0e3944"
       inkscape:connector-curvature="0"
       d="m 537.17,565.31 c 9.72,8.25 23.06,14.35 39.99,18.27 25.41,5.89 39.19,-6.05 52.18,10.33 19.5,24.59 -12.23,69.92 -28.92,93.42 -6.23,8.75 -19.36,33.05 -22.02,56.35 -29.39,8.54 -56.76,7.26 -82.1,-3.82 l -2.84,-54.09 c -15.98,-48.59 -1.41,-88.75 43.71,-120.46 z"
       class="shp1"
       id="path1135" />
    <path
       style="fill:#8bbddb"
       inkscape:connector-curvature="0"
       d="m 582.75,617.93 c 13.43,-32.01 22.09,-49.03 25.98,-51.08 5.84,-3.06 20.63,4.3 23.6,10.86 1.98,4.38 1.98,11.35 0,20.9 -10.59,-12.09 -27.12,-5.65 -49.58,19.32 z"
       class="shp19"
       id="path1137" />
    <path
       style="fill:#6097b2"
       inkscape:connector-curvature="0"
       d="m 679.24,820.81 c -6.11,12.5 -16.66,20.55 -31.64,24.15 -1.14,-1.73 -2.66,-4.15 -4.57,-7.26 -0.3,-0.47 -0.63,-1 -0.93,-1.53 C 624.41,807.49 570.36,715.73 571.42,668 c 0.82,-38.02 13.64,-67.46 38.44,-88.33 12.59,2.99 20.87,6.21 24.85,9.66 4.24,21.62 4.41,45.45 0.53,71.47 -5.83,39.01 -16.42,49.33 -11.09,52.26 3.53,1.93 3.53,4.84 0,8.73 20.89,29.11 33.29,48.2 37.2,57.26 3.8,8.86 10.26,23.91 14.29,33.3 0.27,0.67 0.53,1.34 0.8,1.94 1.13,2.64 2.07,4.81 2.8,6.52 z"
       class="shp8"
       id="path1139" />
    <path
       style="fill:#ff8b66"
       inkscape:connector-curvature="0"
       d="m 624.8,589.32 c -14.96,11.09 -18.09,25.1 -9.37,42.05 l 62.2,64.39 c -34.14,36.38 -37.52,51.32 -62.2,68.09 l 9.37,14.51 c 57.62,-44.29 86.47,-71.82 86.56,-82.6 0.05,-6.92 -52.8,-90.64 -86.56,-106.44 z"
       class="shp3"
       id="path1141" />
    <path
       style="fill:#ff8b66"
       inkscape:connector-curvature="0"
       d="m 614.07,763.85 c -7.91,0.88 -14.35,1.94 -19.33,3.19 -7.46,1.86 -17.42,3.73 -17.73,5.28 -0.2,1.04 5.29,1.04 16.49,0 -9.13,3.75 -13.79,6.35 -14,7.79 -0.21,1.45 5.6,0.92 17.42,-1.56 -7.46,4.56 -10.99,7.46 -10.58,8.71 0.42,1.24 5.23,0.31 14.42,-2.8 -1.71,4.35 -3.45,7.57 -5.22,9.64 1.78,0.98 4.48,-0.54 8.09,-4.55 5.42,-6.03 14.08,-4.09 20.93,-9.44 6.86,-5.34 -4.25,-17.06 -10.49,-16.26 z"
       class="shp3"
       id="path1143" />
    <path
       style="fill:#6097b2"
       inkscape:connector-curvature="0"
       d="m 550.51,573.3 c -11.38,7.35 -20.67,19.91 -27.86,37.68 -10.78,26.64 -44.8,76.78 -52.77,89.74 -5.32,8.64 -6.12,36.45 -2.42,83.46 -6.66,-28.5 -11.48,-48.3 -14.44,-59.4 -4.44,-16.66 14.34,-57.81 17.17,-59.99 2.82,-2.19 17.25,1.81 14.48,-14.9 -2.78,-16.71 35.95,-88.71 46.28,-90.73 11.04,2.07 17.56,6.78 19.56,14.14 z"
       class="shp8"
       id="path1145" />
    <path
       style="fill:#6097b2"
       inkscape:connector-curvature="0"
       d="m 497.71,576.9 c -0.3,0.57 -0.63,1.13 -1.03,1.67 -2.58,3.7 -6.26,7.04 -11.06,9.99 -8.68,12.17 -13.07,18.95 -13.16,20.35 -0.13,1.8 -22.61,18.12 -32.6,17.79 h -0.04 c -1.36,-0.04 -2.5,-0.4 -3.29,-1.14 -5.93,-5.59 20.18,-52.56 25.94,-62.68 0.37,-0.67 0.67,-1.17 0.87,-1.5 0.09,-0.18 0.16,-0.32 0.23,-0.43 -3.06,-11.42 1.8,-16.06 14.59,-13.93 15.95,2.64 19.12,15.33 20.78,23.82 0.4,2.03 -0.16,4.1 -1.23,6.06 z"
       class="shp8"
       id="path1147" />
    <path
       style="fill:#ff8b66"
       inkscape:connector-curvature="0"
       d="m 430.72,594.65 c 13.18,-17.32 59.56,-50.92 83.98,-60.87 l 6.11,11.35 c -31.47,27.66 -50.9,47.41 -58.29,59.25 -11.09,17.75 -24.82,25.09 -37.95,19.18 -13.12,-5.91 3.38,-25.27 6.15,-28.91 z"
       class="shp3"
       id="path1149" />
    <path
       style="fill:#8bbddb"
       inkscape:connector-curvature="0"
       d="m 493.12,573.34 -2.5,2.86 -1.27,1.47 -4.13,4.73 c -6.93,8.39 -10.26,14.28 -9.99,17.65 0.3,3.63 -19.72,19.88 -35.37,26.65 -6.37,2.76 -12.03,3.96 -15.33,2.06 -11.32,-6.53 -8.79,-26.15 -2.36,-39.43 5.6,-11.6 30.34,-26.55 36.7,-30.21 0.8,-0.5 1.3,-0.8 1.47,-0.87 0.02,-0.02 0.03,-0.03 0.03,-0.03 l 2.37,-9.2 c 5.75,-3.46 10.89,-4.13 15.42,-2 -9.99,0.43 -14.17,2.58 -12.52,6.47 2.53,5.86 23.31,19.65 27.48,19.85 z"
       class="shp19"
       id="path1151" />
    <g
       id="g1159">
      <path
         style="fill:#ff8b66"
         inkscape:connector-curvature="0"
         d="m 547.54,525.27 c -15.09,6.2 -12.92,19.86 -26.75,19.86 -5.7,0 -8.93,-3.27 -9.69,-9.8 3.86,-8.36 6.33,-22.61 6.86,-29.41 0.38,-4.53 1.32,-5.91 2.83,-4.16 0,-0.63 -0.03,-1.23 -0.06,-1.83 -0.2,-4.57 -1.04,-7.9 1.96,-5.93 2.27,1.46 3.79,6.5 4.57,15.12 2.79,-18.85 -1.37,-21.65 1.89,-19.98 4.47,2.26 4.5,18.91 4.5,19.41 3.6,-10.95 2.63,-17.22 5.13,-14.72 2.53,2.53 -1.27,22.65 -2.76,30.05 -0.23,1.11 -0.42,2.01 -0.57,2.69 7.97,-3.9 12,-4.34 12.09,-1.3 z"
         class="shp3"
         id="path1153" />
      <path
         style="fill:#ef6e4b"
         inkscape:connector-curvature="0"
         d="m 536.02,523.88 c -0.23,1.11 -0.42,2.01 -0.57,2.69 -3.69,-0.35 -6.87,1.46 -9.56,5.43 0.75,-5.33 4.13,-8.04 10.13,-8.12 z"
         class="shp2"
         id="path1155" />
      <path
         style="fill:#ef6e4b"
         inkscape:connector-curvature="0"
         d="m 521.63,515.28 c 0.1,-1.6 0.76,-10.76 -0.84,-13.52 0,-0.63 -0.03,-1.23 -0.06,-1.83 3.46,0.73 1.26,13.42 0.9,15.35 z"
         class="shp2"
         id="path1157" />
    </g>
    <path
       style="fill:#8bbddb"
       inkscape:connector-curvature="0"
       d="m 530.99,594.74 c 6.8,-18.42 11.28,-29.69 13.44,-33.8 3.24,-6.17 20.14,-5.11 32.92,-2.73 8.53,1.59 13.66,8.09 15.4,19.5 -25.93,-12.23 -46.52,-6.56 -61.76,17.03 z"
       class="shp19"
       id="path1161" />
    <path
       style="fill:#ef6e4b"
       inkscape:connector-curvature="0"
       d="m 596.65,540.35 c -8.15,15.04 -12.15,30.9 -12.03,47.57 -13.22,8.99 -22.2,7.86 -26.94,-3.4 5.03,-14.75 6.32,-32.09 3.9,-52 -1.63,-13.34 10.06,-10.73 35.07,7.83 z"
       class="shp2"
       id="path1163" />
    <g
       id="g1199">
      <path
         style="fill:#ff8b66"
         inkscape:connector-curvature="0"
         d="m 557.68,509.06 c -2.42,-8.62 -5.78,-9.91 -10.09,-3.85 -7.48,10.54 0.14,20.77 4.14,18.33 2.66,-1.63 4.64,-6.46 5.95,-14.48 z"
         class="shp3"
         id="path1165" />
      <path
         style="fill:#ff8b66"
         inkscape:connector-curvature="0"
         d="m 615.36,542.3 c 8.62,-2.4 11.46,-0.19 8.52,6.64 -5.13,11.86 -17.84,10.64 -17.82,5.96 0.01,-3.12 3.11,-7.32 9.3,-12.6 z"
         class="shp3"
         id="path1167" />
      <path
         style="fill:#ff8b66"
         inkscape:connector-curvature="0"
         d="m 562.98,565.45 c -18.38,-10.35 -22,-28.2 -1.72,-64.21 10.46,-18.57 26.32,-24.64 46.91,-13.05 20.59,11.59 22.84,27.87 12.38,46.44 -21.78,38.69 -38.59,41.51 -57.57,30.82 z"
         class="shp3"
         id="path1169" />
      <path
         style="fill:#db614d"
         inkscape:connector-curvature="0"
         d="m 607.24,544.05 c -0.72,2.03 -3.36,2.94 -5.9,2.05 -2.54,-0.9 -4.01,-3.27 -3.29,-5.3 0.72,-2.03 3.35,-2.95 5.89,-2.05 2.54,0.9 4.01,3.27 3.3,5.3 z"
         class="shp6"
         id="path1171" />
      <path
         style="fill:#db614d"
         inkscape:connector-curvature="0"
         d="m 568.86,523.77 c -1.17,1.8 -3.95,2.07 -6.21,0.6 -2.25,-1.47 -3.13,-4.13 -1.95,-5.93 1.18,-1.8 3.96,-2.07 6.21,-0.6 2.26,1.47 3.13,4.12 1.95,5.93 z"
         class="shp6"
         id="path1173" />
      <g
         id="g1177">
        <path
           style="fill:#1a4850"
           inkscape:connector-curvature="0"
           d="m 609.87,520.77 c -0.48,0 -0.9,-0.32 -1.03,-0.8 -1.04,-4.1 -5.58,-6.51 -5.63,-6.54 -0.51,-0.27 -0.71,-0.9 -0.44,-1.42 0.26,-0.52 0.9,-0.72 1.42,-0.45 0.22,0.12 5.43,2.89 6.7,7.89 0.14,0.57 -0.2,1.14 -0.76,1.28 -0.09,0.03 -0.18,0.04 -0.26,0.04 z"
           class="shp7"
           id="path1175" />
      </g>
      <g
         id="g1181">
        <path
           style="fill:#1a4850"
           inkscape:connector-curvature="0"
           d="m 584.62,502.81 c -0.18,0 -0.37,-0.05 -0.54,-0.15 -0.04,-0.03 -4.47,-2.66 -8.51,-1.43 -0.56,0.18 -1.15,-0.14 -1.32,-0.7 -0.17,-0.55 0.14,-1.14 0.7,-1.31 4.94,-1.52 10.01,1.5 10.22,1.63 0.5,0.31 0.66,0.95 0.36,1.45 -0.2,0.33 -0.55,0.51 -0.91,0.51 z"
           class="shp7"
           id="path1179" />
      </g>
      <path
         style="fill:#1a4850"
         inkscape:connector-curvature="0"
         d="m 602.27,529.49 c -1.28,2.28 -3.35,3.55 -4.62,2.84 -1.27,-0.72 -1.26,-3.14 0.03,-5.43 1.28,-2.28 3.35,-3.55 4.62,-2.84 1.27,0.72 1.26,3.15 -0.03,5.43 z"
         class="shp7"
         id="path1183" />
      <path
         style="fill:#1a4850"
         inkscape:connector-curvature="0"
         d="m 576.5,515.67 c -1.28,2.28 -3.35,3.55 -4.62,2.84 -1.27,-0.72 -1.26,-3.15 0.03,-5.43 1.28,-2.28 3.35,-3.55 4.62,-2.84 1.27,0.72 1.26,3.14 -0.03,5.43 z"
         class="shp7"
         id="path1185" />
      <path
         style="fill:#1a4850"
         inkscape:connector-curvature="0"
         d="m 567.57,539.1 c 7.03,5.37 13.09,8.13 18.17,8.29 -5.4,4.4 -10.05,5.18 -13.93,2.32 -3.88,-2.85 -5.3,-6.39 -4.24,-10.61 z"
         class="shp7"
         id="path1187" />
      <path
         style="fill:#1a4850"
         inkscape:connector-curvature="0"
         d="m 596.73,524.88 c 3.23,-3.12 5.5,-4.13 6.82,-3.04 1.32,1.1 1.64,3.57 0.95,7.41 l 4.23,0.11 -3.5,-1.41 c 0.75,-3.99 0.4,-6.4 -1.05,-7.22 -2.07,-1.18 -4.55,0.21 -7.45,4.15 z"
         class="shp7"
         id="path1189" />
      <path
         style="fill:#1a4850"
         inkscape:connector-curvature="0"
         d="m 578.5,515.51 c 0.99,-4.37 0.68,-6.84 -0.95,-7.4 -1.62,-0.56 -3.89,0.45 -6.82,3.03 l -2.29,-3.56 3.02,2.26 c 3.02,-2.71 5.26,-3.66 6.72,-2.85 2.08,1.16 2.18,4 0.32,8.52 z"
         class="shp7"
         id="path1191" />
      <path
         style="fill:#f24052"
         inkscape:connector-curvature="0"
         d="m 613.05,495.89 c -4.39,-6.1 -9.61,-6.73 -15.67,-1.89 -9.1,7.27 -29.61,18.9 -39.7,15.06 -10.09,-3.85 22.08,-46.84 50,-34.25 27.93,12.59 25.42,53.57 13.8,66.6 -7.74,8.69 -9.78,8.99 -6.12,0.89 0.52,-12.32 2.07,-22.57 4.66,-30.73 2.58,-8.17 0.26,-13.4 -6.97,-15.68 z"
         class="shp13"
         id="path1193" />
      <g
         id="g1197">
        <path
           style="fill:#db614d"
           inkscape:connector-curvature="0"
           d="m 582.1,534.91 c -0.51,0 -1.04,-0.07 -1.59,-0.21 l 0.56,-2.2 c 1.87,0.48 2.8,-0.33 3.24,-1.09 0.63,-1.07 0.54,-2.46 0.04,-2.98 -0.29,-0.3 -0.79,-0.27 -1.48,0.1 l -1.06,-2.02 c 2.32,-1.21 3.7,-0.16 4.19,0.35 1.25,1.32 1.37,3.82 0.27,5.7 -0.89,1.52 -2.39,2.35 -4.17,2.35 z"
           class="shp6"
           id="path1195" />
      </g>
    </g>
    <g
       id="g1207">
      <path
         style="fill:#8bbddb"
         inkscape:connector-curvature="0"
         d="m 716.71,693.21 c -1.1,16.16 -41.07,68.75 -47.73,70.61 -1.73,0.47 -3.5,1.44 -5.16,2.57 -0.7,0.5 -1.4,1.03 -2.07,1.56 -2.53,2.05 -4.75,4.25 -6.66,6.6 -11.66,-0.77 -44.4,-15.92 -33.87,-19.25 0.63,-0.2 1.33,-0.57 2.09,-1.1 0.44,-0.3 0.9,-0.63 1.37,-1.07 12.39,-10.39 36.51,-52.56 36.67,-55.75 0.09,-2.34 1.52,-3.72 4.3,-4.17 -15.17,-22.27 -27.15,-34.75 -35.94,-37.44 -8.79,-2.68 -15.41,-9.34 -19.85,-19.98 -8.68,-36.75 -0.4,-52.24 24.85,-46.46 27.91,16.62 83.1,87.69 82,103.88 z"
         class="shp19"
         id="path1201" />
      <g
         id="g1205">
        <path
           style="fill:#3e6575"
           inkscape:connector-curvature="0"
           d="m 663.82,766.39 c -0.7,0.5 -1.4,1.03 -2.07,1.56 -17.88,-1.23 -32.87,-10.02 -38.44,-13.75 0.44,-0.3 0.9,-0.63 1.37,-1.07 5.96,3.9 21.22,12.59 39.14,13.26 z"
           class="shp20"
           id="path1203" />
      </g>
    </g>
    <g
       id="g1211">
      <path
         style="fill:#3e6575"
         inkscape:connector-curvature="0"
         d="m 497.71,576.9 c -0.3,0.57 -0.63,1.13 -1.03,1.67 -2.57,-0.1 -5,-0.4 -7.33,-0.9 -11.82,-2.4 -20.92,-9.03 -26.88,-14.79 -1.36,-1.33 -2.56,-2.6 -3.6,-3.76 0.8,-0.5 1.3,-0.8 1.47,-0.87 0.87,0.97 1.87,2.03 3,3.13 5.93,5.83 15.15,12.62 27.28,14.82 2.26,0.44 4.63,0.67 7.09,0.7 z"
         class="shp20"
         id="path1209" />
    </g>
    <g
       id="g1215">
      <path
         style="fill:#3e6575"
         inkscape:connector-curvature="0"
         d="m 676.44,814.29 c -5.5,9.29 -15.65,20.51 -33.41,23.41 -0.3,-0.47 -0.63,-1 -0.93,-1.53 18.22,-2.73 28.31,-14.56 33.54,-23.82 0.27,0.67 0.53,1.34 0.8,1.94 z"
         class="shp20"
         id="path1213" />
    </g>
    <g
       id="g1225">
      <path
         style="fill:#cfd8dc"
         inkscape:connector-curvature="0"
         d="m 373.31,1117.35 c -2.78,2.73 -5.61,6.61 -8.5,11.63 -4.33,7.52 0.44,14.45 -20.51,31.9 -28.18,-16.49 -48.63,-35.35 -61.36,-56.55 0.23,-6.06 3.41,-9.81 9.56,-11.23 4.97,-1.13 18.62,5.27 31.75,7.73 1.86,0.33 3.73,0.63 5.56,0.77 2.3,0.2 4.56,0.23 6.73,-0.04 1.99,-0.2 3.89,-0.63 5.66,-1.36 h 0.03 c 4.46,-1.83 8,-5.46 9.83,-11.83 7.48,4.27 8.72,10.01 3.73,17.22 8.88,-3.88 14.72,0.04 17.52,11.76 z"
         class="shp5"
         id="path1217" />
      <path
         style="fill:#adbec4"
         inkscape:connector-curvature="0"
         d="m 344.3,1160.88 c -28.18,-16.49 -48.63,-35.35 -61.36,-56.55 4.73,-1 9.05,2.01 12.96,9.02 5.86,10.56 51.83,34.51 48.4,47.53 z"
         class="shp0"
         id="path1219" />
      <path
         style="fill:#adbec4"
         inkscape:connector-curvature="0"
         d="m 344.46,1110.86 c -3.43,5.43 -3.36,-4.6 -7.92,-9.3 1.99,-0.2 3.89,-0.63 5.66,-1.36 h 0.03 c 2.03,2.2 4.93,6.43 2.23,10.66 z"
         class="shp0"
         id="path1221" />
      <path
         style="fill:#adbec4"
         inkscape:connector-curvature="0"
         d="m 331.17,1111.16 c -3.63,3.43 -4.79,-5.53 -6.92,-10.33 1.86,0.33 3.73,0.63 5.56,0.77 2.13,2.89 4.13,6.93 1.36,9.56 z"
         class="shp0"
         id="path1223" />
    </g>
    <g
       id="g1233">
      <path
         style="fill:#cfd8dc"
         inkscape:connector-curvature="0"
         d="m 633.34,1227.17 h -59.79 c -1.66,-5.55 -1.66,-11.38 0,-17.49 1.07,-3.96 7.26,-7.66 13.03,-12.82 1.59,-1.44 3.13,-2.93 4.56,-4.63 1.13,-1.34 2.16,-2.8 3.03,-4.37 1.1,-1.89 1.97,-3.96 2.47,-6.22 0.96,-4.53 0.59,-9.86 -2,-16.26 13.56,-2.84 22.77,-0.56 27.61,6.83 0.47,-3.42 2.85,-3.99 7.16,-1.7 -0.62,6.86 -0.51,13.17 0.33,18.92 1.27,8.59 9.3,11.09 3.6,37.74 z"
         class="shp5"
         id="path1227" />
      <path
         style="fill:#adbec4"
         inkscape:connector-curvature="0"
         d="m 617.79,1191.16 c -0.54,0.6 -1.27,0.9 -2,0.9 -0.64,0 -1.24,-0.2 -1.77,-0.6 -3.1,-2.46 -9.92,-6.29 -19.85,-3.6 1.1,-1.89 1.97,-3.96 2.47,-6.22 3.99,-1.47 11.52,-2.34 20.81,5.59 1.2,1 1.37,2.77 0.34,3.93 z"
         class="shp0"
         id="path1229" />
      <path
         style="fill:#adbec4"
         inkscape:connector-curvature="0"
         d="m 612.76,1201.09 -0.34,0.5 c -0.8,1.23 -2.4,1.63 -3.66,0.9 -4.06,-2.4 -13.19,-6.93 -22.18,-5.63 1.59,-1.44 3.13,-2.93 4.56,-4.63 4.43,-1.03 12.79,-1.6 21.02,5.23 1.06,0.9 1.36,2.46 0.6,3.63 z"
         class="shp0"
         id="path1231" />
    </g>
  </g>
</svg>