<svg xmlns="http://www.w3.org/2000/svg" version="1.1" xmlns:xlink="http://www.w3.org/1999/xlink" xmlns:svgjs="http://svgjs.com/svgjs" width="1440" height="250" preserveAspectRatio="none" viewBox="0 0 1440 250"><g mask="url(&quot;#SvgjsMask1006&quot;)" fill="none"><rect width="1440" height="250" x="0" y="0" fill="#0e2a47"></rect><path d="M22 250L272 0L365 0L115 250z" fill="url(#SvgjsLinearGradient1007)"></path><path d="M273.6 250L523.6 0L709.6 0L459.6 250z" fill="url(#SvgjsLinearGradient1007)"></path><path d="M484.20000000000005 250L734.2 0L818.2 0L568.2 250z" fill="url(#SvgjsLinearGradient1007)"></path><path d="M752.8000000000001 250L1002.8000000000001 0L1134.8000000000002 0L884.8000000000001 250z" fill="url(#SvgjsLinearGradient1007)"></path><path d="M1403 250L1153 0L1009 0L1259 250z" fill="url(#SvgjsLinearGradient1008)"></path><path d="M1188.4 250L938.4000000000001 0L612.9000000000001 0L862.9000000000001 250z" fill="url(#SvgjsLinearGradient1008)"></path><path d="M951.8 250L701.8 0L599.8 0L849.8 250z" fill="url(#SvgjsLinearGradient1008)"></path><path d="M707.1999999999999 250L457.19999999999993 0L245.69999999999993 0L495.69999999999993 250z" fill="url(#SvgjsLinearGradient1008)"></path><path d="M1211.2441058361183 250L1440 21.244105836118337L1440 250z" fill="url(#SvgjsLinearGradient1007)"></path><path d="M0 250L228.75589416388166 250L 0 21.244105836118337z" fill="url(#SvgjsLinearGradient1008)"></path></g><defs><mask id="SvgjsMask1006"><rect width="1440" height="250" fill="#ffffff"></rect></mask><linearGradient x1="0%" y1="100%" x2="100%" y2="0%" id="SvgjsLinearGradient1007"><stop stop-color="rgba(15, 70, 185, 0.2)" offset="0"></stop><stop stop-opacity="0" stop-color="rgba(15, 70, 185, 0.2)" offset="0.66"></stop></linearGradient><linearGradient x1="100%" y1="100%" x2="0%" y2="0%" id="SvgjsLinearGradient1008"><stop stop-color="rgba(15, 70, 185, 0.2)" offset="0"></stop><stop stop-opacity="0" stop-color="rgba(15, 70, 185, 0.2)" offset="0.66"></stop></linearGradient></defs></svg>